<?xml version="1.0" encoding="utf-8"?>
<!-- Generator: Adobe Illustrator 25.2.0, SVG Export Plug-In . SVG Version: 6.00 Build 0)  -->
<svg version="1.1" id="Layer_1" xmlns="http://www.w3.org/2000/svg" xmlns:xlink="http://www.w3.org/1999/xlink" x="0px" y="0px"
	 viewBox="0 0 897.3 1738.4" style="enable-background:new 0 0 897.3 1738.4;" xml:space="preserve">
<style type="text/css">
	.st0{fill:url(#SVGID_1_);}
	.st1{fill:#F26E24;}
	.st2{fill:url(#SVGID_2_);}
	.st3{fill:url(#SVGID_3_);}
	.st4{fill:none;stroke:#91321E;stroke-miterlimit:10;}
	.st5{opacity:0.32;fill:#050606;}
	.st6{fill:url(#SVGID_4_);}
	.st7{fill:url(#SVGID_5_);}
</style>
<linearGradient id="SVGID_1_" gradientUnits="userSpaceOnUse" x1="0" y1="262.5798" x2="681.6755" y2="262.5798">
	<stop  offset="0" style="stop-color:#FFFFFF"/>
	<stop  offset="0.5535" style="stop-color:#EDEEEF"/>
	<stop  offset="1" style="stop-color:#E6E7E8"/>
</linearGradient>
<polygon class="st0" points="681.7,229.1 43.3,525.2 0,251.6 681.7,0 "/>
<polygon class="st1" points="727.8,274 89.4,570.1 40.1,296.5 727.8,44.9 "/>
<polygon class="st1" points="751.6,277.9 113.2,574 63.9,300.4 751.6,48.8 "/>
<polygon class="st1" points="790.2,279.5 151.8,575.5 102.5,301.9 790.2,50.4 "/>
<polygon class="st1" points="825.7,279.5 187.3,575.5 138,301.9 825.7,50.4 "/>
<linearGradient id="SVGID_2_" gradientUnits="userSpaceOnUse" x1="0" y1="994.9708" x2="263.7993" y2="994.9708">
	<stop  offset="0" style="stop-color:#FFFFFF"/>
	<stop  offset="0.5535" style="stop-color:#EDEEEF"/>
	<stop  offset="1" style="stop-color:#E6E7E8"/>
</linearGradient>
<polygon class="st2" points="238.1,1738.4 27,1621.6 0,251.6 263.8,319.2 "/>
<linearGradient id="SVGID_3_" gradientUnits="userSpaceOnUse" x1="238.0743" y1="891.6555" x2="897.29" y2="891.6555">
	<stop  offset="0" style="stop-color:#FFFFFF"/>
	<stop  offset="0.2554" style="stop-color:#EBECEC"/>
	<stop  offset="0.6177" style="stop-color:#D8D9DB"/>
	<stop  offset="0.8474" style="stop-color:#D1D3D4"/>
</linearGradient>
<polygon class="st3" points="794,1217.3 238.1,1738.4 238.1,314.2 897.3,44.9 "/>
<line class="st4" x1="95.8" y1="276.1" x2="727.8" y2="44.9"/>
<line class="st4" x1="125" y1="281.2" x2="747.7" y2="51.5"/>
<circle class="st5" cx="275.2" cy="778" r="25.6"/>
<circle class="st5" cx="384.8" cy="754.6" r="25.6"/>
<circle class="st5" cx="275.2" cy="1183.9" r="25.6"/>
<circle class="st5" cx="384.8" cy="1160.5" r="25.6"/>
<line class="st4" x1="154.7" y1="289.4" x2="786.7" y2="51.9"/>
<line class="st4" x1="189.7" y1="298.7" x2="821.8" y2="52.3"/>
<linearGradient id="SVGID_4_" gradientUnits="userSpaceOnUse" x1="323.9876" y1="749.1965" x2="339.7375" y2="780.6964">
	<stop  offset="0" style="stop-color:#1669B3"/>
	<stop  offset="6.693882e-02" style="stop-color:#1B60A4"/>
	<stop  offset="0.3761" style="stop-color:#1E3F77"/>
	<stop  offset="0.6458" style="stop-color:#19285A"/>
	<stop  offset="0.8628" style="stop-color:#14194B"/>
	<stop  offset="1" style="stop-color:#121245"/>
</linearGradient>
<path class="st6" d="M272.9,780c2,21.3,36.2,35.5,76.3,31.7c40.1-3.8,41.1-45.8,39.1-67.2s-1.3,38.3-41.4,42.1
	C306.7,790.5,270.9,758.7,272.9,780z"/>
<linearGradient id="SVGID_5_" gradientUnits="userSpaceOnUse" x1="323.9876" y1="1151.2119" x2="339.7375" y2="1182.7118">
	<stop  offset="0" style="stop-color:#1669B3"/>
	<stop  offset="6.693882e-02" style="stop-color:#1B60A4"/>
	<stop  offset="0.3761" style="stop-color:#1E3F77"/>
	<stop  offset="0.6458" style="stop-color:#19285A"/>
	<stop  offset="0.8628" style="stop-color:#14194B"/>
	<stop  offset="1" style="stop-color:#121245"/>
</linearGradient>
<path class="st7" d="M272.9,1182.1c2,21.3,36.2,35.5,76.3,31.7s41.1-45.8,39.1-67.2s-1.3,38.3-41.4,42.1S270.9,1160.8,272.9,1182.1z
	"/>
</svg>
