<?xml version="1.0" encoding="utf-8"?>
<!-- Generator: Adobe Illustrator 25.2.0, SVG Export Plug-In . SVG Version: 6.00 Build 0)  -->
<svg version="1.1" id="Layer_1" xmlns="http://www.w3.org/2000/svg" xmlns:xlink="http://www.w3.org/1999/xlink" x="0px" y="0px"
	 viewBox="0 0 134.4 97.2" style="enable-background:new 0 0 134.4 97.2;" xml:space="preserve">
<style type="text/css">
	.st0{fill:url(#SVGID_1_);}
</style>
<linearGradient id="SVGID_1_" gradientUnits="userSpaceOnUse" x1="0" y1="50.2832" x2="134.4" y2="50.2832">
	<stop  offset="0" style="stop-color:#0467B8"/>
	<stop  offset="0.3013" style="stop-color:#033F8C"/>
	<stop  offset="0.6026" style="stop-color:#021D67"/>
	<stop  offset="0.8461" style="stop-color:#010850"/>
	<stop  offset="1" style="stop-color:#010048"/>
</linearGradient>
<path class="st0" d="M134.4,16.5v37.6c0,0-8.7,1.6-10.5,1.8c-1.8,0.2-7.4,1.9-11.5-1.7c-6.3-5.6-28.6-26.1-28.6-26.1
	s-3.8-3.5-10-0.5c-5.7,2.8-14.1,6.8-17.6,8.4c-6.6,3.3-12.1-1.9-12.1-5.9c0-3.1,2.1-5.1,5-6.7C57.1,19,74,10.2,81,6.8
	c4.3-2.1,7.4-2.3,13.2,2.3c7.2,5.6,13.7,10.7,13.7,10.7s2.1,1.6,5.4,1C121.5,19.2,134.4,16.5,134.4,16.5z M45.6,80.2
	c1.1-2.6,0.7-5.4-1.4-7.4c-1.9-1.8-4.6-2.2-7.2-1.7c0.7-2.4,0.3-4.9-1.5-6.7c-1.9-1.8-4.6-2.2-7.2-1.7c0.7-2.4,0.3-4.9-1.6-6.7
	c-2.9-2.8-8-2.7-11.3,0.3c-3.3,2.9-5.4,8.3-2.5,11.4c3,3.1,6.3,1.2,8.9,0.7c-0.7,2.4-2.9,4.6-0.2,7.7c2.7,3.1,6.3,1.2,8.9,0.7
	c-0.7,2.4-2.8,4.8-0.2,7.7c2.6,2.9,6.8,1.3,9.6,0.5c-1.1,2.6-3.4,5.3-0.4,8.4c3,3.1,9.8,1.7,13.1-1.3c3.3-2.9,3.6-7.6,0.7-10.4
	C51.4,79.9,48.4,79.4,45.6,80.2z M106.4,60.7C82.3,38.4,93.7,48.9,80.7,36.9c0,0-3.9-3.6-9-1.5c-3.6,1.5-8.2,3.5-11.7,5
	c-3.8,1.9-6.6,2.4-7.9,2.4c-7.4,0-13.4-5.6-13.4-12.4c0-4.4,2.6-8.3,6.4-10.5c5.4-3.4,17.7-9.5,17.7-9.5s-3.8-4.4-12-4.4
	c-8.2,0-25.4,10.4-25.4,10.4s-4.9,2.9-11.8,0.3L0,12.3v43c0,0,3.8,1,7.3,2.3c0.8-2,2-3.9,3.8-5.5c5.7-5,15.2-5.1,20.3-0.1
	c1.6,1.5,2.7,3.3,3.2,5.3c2.1,0.6,4,1.7,5.5,3.1c1.6,1.5,2.7,3.3,3.2,5.3c2.1,0.6,4,1.7,5.5,3.1c1.7,1.6,2.9,3.6,3.4,5.8
	c2.2,0.6,4.2,1.7,5.7,3.2c3.1,3,4.2,7,3.6,10.9c0,0,0,0,0,0c0.1,0.1,1.9,2,3.1,3.1c2.3,2.1,6.1,2.1,8.4,0c2.3-2.1,2.3-5.6,0-7.7
	c-0.1-0.1-8.3-8-7.6-8.6c0.7-0.6,11.1,9.4,11.3,9.6c2.3,2.1,6,2.1,8.3,0c2.3-2.1,2.3-5.6,0-7.7c-0.1-0.1-0.6-0.5-0.8-0.7
	c0,0-10.4-8.5-9.6-9.3c0.8-0.7,13.7,10.4,13.7,10.4c2.3,1.9,5.9,1.9,8.1-0.1c2.2-2,2.2-5.2,0.3-7.3c0-0.1-9.8-9.6-9.1-10.3
	c0.8-0.7,10.4,8.5,10.5,8.5c2.3,2.1,6,2.1,8.4,0c2.3-2.1,2.3-5.6,0-7.7C106.5,60.7,106.5,60.7,106.4,60.7z"/>
</svg>
