<?xml version="1.0" encoding="utf-8"?>
<!-- Generator: Adobe Illustrator 25.2.0, SVG Export Plug-In . SVG Version: 6.00 Build 0)  -->
<svg version="1.1" id="Color" xmlns="http://www.w3.org/2000/svg" xmlns:xlink="http://www.w3.org/1999/xlink" x="0px" y="0px"
	 viewBox="0 0 67.6 68.3" style="enable-background:new 0 0 67.6 68.3;" xml:space="preserve">
<style type="text/css">
	.st0{fill:url(#SVGID_1_);}
	.st1{fill:url(#SVGID_2_);}
	.st2{fill:url(#SVGID_3_);}
	.st3{fill:url(#SVGID_4_);}
	.st4{fill:url(#SVGID_5_);}
	.st5{fill:url(#SVGID_6_);}
	.st6{fill:url(#SVGID_7_);}
	.st7{fill:url(#SVGID_8_);}
	.st8{fill:url(#SVGID_9_);}
	.st9{fill:url(#SVGID_10_);}
</style>
<g>
	<g>
		<g>
			<linearGradient id="SVGID_1_" gradientUnits="userSpaceOnUse" x1="18.1081" y1="12.1876" x2="38.4976" y2="12.1876">
				<stop  offset="0" style="stop-color:#0467B8"/>
				<stop  offset="0.3013" style="stop-color:#033F8C"/>
				<stop  offset="0.6026" style="stop-color:#021D67"/>
				<stop  offset="0.8461" style="stop-color:#010850"/>
				<stop  offset="1" style="stop-color:#010048"/>
			</linearGradient>
			<path class="st0" d="M19.1,21.4L19.1,21.4c-1.3-1.3-1.3-3.4,0-4.6L32.9,2.9c1.3-1.3,3.4-1.3,4.6,0l0,0c1.3,1.3,1.3,3.4,0,4.6
				L23.7,21.4C22.4,22.7,20.3,22.7,19.1,21.4z"/>
			<linearGradient id="SVGID_2_" gradientUnits="userSpaceOnUse" x1="16.1153" y1="8.3368" x2="32.7889" y2="8.3368">
				<stop  offset="0" style="stop-color:#0467B8"/>
				<stop  offset="0.3013" style="stop-color:#033F8C"/>
				<stop  offset="0.6026" style="stop-color:#021D67"/>
				<stop  offset="0.8461" style="stop-color:#010850"/>
				<stop  offset="1" style="stop-color:#010048"/>
			</linearGradient>
			<path class="st1" d="M16.8,16L16.8,16c-0.8-0.8-0.8-2.2,0-3.1L29.1,0.6c0.8-0.8,2.2-0.8,3.1,0l0,0c0.8,0.8,0.8,2.2,0,3.1L19.8,16
				C19,16.9,17.6,16.9,16.8,16z"/>
			<linearGradient id="SVGID_3_" gradientUnits="userSpaceOnUse" x1="39.6721" y1="33.7516" x2="60.0617" y2="33.7516">
				<stop  offset="0" style="stop-color:#0467B8"/>
				<stop  offset="0.3013" style="stop-color:#033F8C"/>
				<stop  offset="0.6026" style="stop-color:#021D67"/>
				<stop  offset="0.8461" style="stop-color:#010850"/>
				<stop  offset="1" style="stop-color:#010048"/>
			</linearGradient>
			<path class="st2" d="M40.6,43L40.6,43c1.3,1.3,3.4,1.3,4.6,0l13.9-13.9c1.3-1.3,1.3-3.4,0-4.6h0c-1.3-1.3-3.4-1.3-4.6,0
				L40.6,38.4C39.4,39.6,39.4,41.7,40.6,43z"/>
			<linearGradient id="SVGID_4_" gradientUnits="userSpaceOnUse" x1="45.3808" y1="37.6024" x2="62.0546" y2="37.6024">
				<stop  offset="0" style="stop-color:#0467B8"/>
				<stop  offset="0.3013" style="stop-color:#033F8C"/>
				<stop  offset="0.6026" style="stop-color:#021D67"/>
				<stop  offset="0.8461" style="stop-color:#010850"/>
				<stop  offset="1" style="stop-color:#010048"/>
			</linearGradient>
			<path class="st3" d="M46,45.3L46,45.3c0.8,0.8,2.2,0.8,3.1,0L61.4,33c0.8-0.8,0.8-2.2,0-3.1l0,0c-0.8-0.8-2.2-0.8-3.1,0L46,42.2
				C45.2,43.1,45.2,44.5,46,45.3z"/>
			<linearGradient id="SVGID_5_" gradientUnits="userSpaceOnUse" x1="24.4521" y1="22.9696" x2="53.7176" y2="22.9696">
				<stop  offset="0" style="stop-color:#0467B8"/>
				<stop  offset="0.3013" style="stop-color:#033F8C"/>
				<stop  offset="0.6026" style="stop-color:#021D67"/>
				<stop  offset="0.8461" style="stop-color:#010850"/>
				<stop  offset="1" style="stop-color:#010048"/>
			</linearGradient>
			<polygon class="st4" points="41.4,37.6 24.5,20.7 36.8,8.3 53.7,25.3 			"/>
		</g>
		<linearGradient id="SVGID_6_" gradientUnits="userSpaceOnUse" x1="24.0671" y1="32.9815" x2="34.0789" y2="32.9815">
			<stop  offset="0" style="stop-color:#0467B8"/>
			<stop  offset="0.3013" style="stop-color:#033F8C"/>
			<stop  offset="0.6026" style="stop-color:#021D67"/>
			<stop  offset="0.8461" style="stop-color:#010850"/>
			<stop  offset="1" style="stop-color:#010048"/>
		</linearGradient>
		<polygon class="st5" points="31.8,28 34.1,30.3 26.4,38 24.1,35.7 		"/>
		<linearGradient id="SVGID_7_" gradientUnits="userSpaceOnUse" x1="0" y1="49.1545" x2="25.7998" y2="49.1545">
			<stop  offset="0" style="stop-color:#0467B8"/>
			<stop  offset="0.3013" style="stop-color:#033F8C"/>
			<stop  offset="0.6026" style="stop-color:#021D67"/>
			<stop  offset="0.8461" style="stop-color:#010850"/>
			<stop  offset="1" style="stop-color:#010048"/>
		</linearGradient>
		<polygon class="st6" points="21.6,36.3 25.8,40.5 4.2,62.1 0,57.8 		"/>
		<linearGradient id="SVGID_8_" gradientUnits="userSpaceOnUse" x1="20.2837" y1="37.6023" x2="28.6205" y2="37.6023">
			<stop  offset="0" style="stop-color:#0467B8"/>
			<stop  offset="0.3013" style="stop-color:#033F8C"/>
			<stop  offset="0.6026" style="stop-color:#021D67"/>
			<stop  offset="0.8461" style="stop-color:#010850"/>
			<stop  offset="1" style="stop-color:#010048"/>
		</linearGradient>
		<path class="st7" d="M22.1,33.8l6.2,6.2c0.4,0.4,0.4,1.1,0,1.5l0,0c-0.4,0.4-1.1,0.4-1.5,0l-6.2-6.2c-0.4-0.4-0.4-1.1,0-1.5l0,0
			C21,33.3,21.7,33.3,22.1,33.8z"/>
	</g>
	<linearGradient id="SVGID_9_" gradientUnits="userSpaceOnUse" x1="43.0231" y1="65.1902" x2="67.6412" y2="65.1902">
		<stop  offset="0" style="stop-color:#0467B8"/>
		<stop  offset="0.3013" style="stop-color:#033F8C"/>
		<stop  offset="0.6026" style="stop-color:#021D67"/>
		<stop  offset="0.8461" style="stop-color:#010850"/>
		<stop  offset="1" style="stop-color:#010048"/>
	</linearGradient>
	<path class="st8" d="M67.6,65.2L67.6,65.2c0-1.7-1.4-3.1-3.1-3.1H46.1c-1.7,0-3.1,1.4-3.1,3.1v0c0,1.7,1.4,3.1,3.1,3.1h18.5
		C66.3,68.3,67.6,66.9,67.6,65.2z"/>
	<linearGradient id="SVGID_10_" gradientUnits="userSpaceOnUse" x1="45.0746" y1="60.0615" x2="65.5896" y2="60.0615">
		<stop  offset="0" style="stop-color:#0467B8"/>
		<stop  offset="0.3013" style="stop-color:#033F8C"/>
		<stop  offset="0.6026" style="stop-color:#021D67"/>
		<stop  offset="0.8461" style="stop-color:#010850"/>
		<stop  offset="1" style="stop-color:#010048"/>
	</linearGradient>
	<path class="st9" d="M65.6,60.1L65.6,60.1c0-1.1-0.9-2.1-2.1-2.1H47.1c-1.1,0-2.1,0.9-2.1,2.1v0c0,1.1,0.9,2.1,2.1,2.1h16.4
		C64.7,62.1,65.6,61.2,65.6,60.1z"/>
</g>
</svg>
