<?xml version="1.0" encoding="utf-8"?>
<!-- Generator: Adobe Illustrator 25.2.0, SVG Export Plug-In . SVG Version: 6.00 Build 0)  -->
<svg version="1.1" id="Layer_1" xmlns="http://www.w3.org/2000/svg" xmlns:xlink="http://www.w3.org/1999/xlink" x="0px" y="0px"
	 viewBox="0 0 118 140.5" style="enable-background:new 0 0 118 140.5;" xml:space="preserve">
<style type="text/css">
	.st0{fill:url(#SVGID_1_);}
	.st1{fill:url(#SVGID_2_);}
	.st2{fill:url(#SVGID_3_);}
	.st3{fill:url(#SVGID_4_);}
	.st4{fill:url(#SVGID_5_);}
	.st5{fill:url(#SVGID_6_);}
	.st6{fill:url(#SVGID_7_);}
	.st7{fill:url(#SVGID_8_);}
	.st8{fill:url(#SVGID_9_);}
	.st9{fill:url(#SVGID_10_);}
	.st10{fill:url(#SVGID_11_);}
	.st11{fill:url(#SVGID_12_);}
	.st12{fill:url(#SVGID_13_);}
	.st13{fill:url(#SVGID_14_);}
</style>
<linearGradient id="SVGID_1_" gradientUnits="userSpaceOnUse" x1="0" y1="81.5217" x2="118" y2="81.5217">
	<stop  offset="0" style="stop-color:#0467B8"/>
	<stop  offset="0.3013" style="stop-color:#033F8C"/>
	<stop  offset="0.6026" style="stop-color:#021D67"/>
	<stop  offset="0.8461" style="stop-color:#010850"/>
	<stop  offset="1" style="stop-color:#010048"/>
</linearGradient>
<path class="st0" d="M59,22.5c-32.6,0-59,26.4-59,59c0,32.6,26.4,59,59,59s59-26.4,59-59C118,48.9,91.6,22.5,59,22.5z M59,134.5
	c-29.3,0-53-23.7-53-53c0-29.3,23.7-53,53-53s53,23.7,53,53C112,110.8,88.3,134.5,59,134.5z"/>
<linearGradient id="SVGID_2_" gradientUnits="userSpaceOnUse" x1="9.7723" y1="25.0217" x2="31.2277" y2="25.0217">
	<stop  offset="0" style="stop-color:#0467B8"/>
	<stop  offset="0.3013" style="stop-color:#033F8C"/>
	<stop  offset="0.6026" style="stop-color:#021D67"/>
	<stop  offset="0.8461" style="stop-color:#010850"/>
	<stop  offset="1" style="stop-color:#010048"/>
</linearGradient>
<path class="st1" d="M28.8,25.8l-12.5,6.4c-2.2,1.1-4.9,0.3-6.1-1.9l0,0c-1.1-2.2-0.3-4.9,1.9-6.1l12.5-6.4c2.2-1.1,4.9-0.3,6.1,1.9
	l0,0C31.9,22,31,24.7,28.8,25.8z"/>
<linearGradient id="SVGID_3_" gradientUnits="userSpaceOnUse" x1="83.9371" y1="25.0217" x2="105.0629" y2="25.0217">
	<stop  offset="0" style="stop-color:#0467B8"/>
	<stop  offset="0.3013" style="stop-color:#033F8C"/>
	<stop  offset="0.6026" style="stop-color:#021D67"/>
	<stop  offset="0.8461" style="stop-color:#010850"/>
	<stop  offset="1" style="stop-color:#010048"/>
</linearGradient>
<path class="st2" d="M98.3,32.4l-12.1-7c-2.2-1.2-2.9-4-1.6-6.1l0,0c1.2-2.2,4-2.9,6.1-1.6l12.1,7c2.2,1.2,2.9,4,1.6,6.1l0,0
	C103.2,32.9,100.5,33.7,98.3,32.4z"/>
<linearGradient id="SVGID_4_" gradientUnits="userSpaceOnUse" x1="38.5" y1="8.0217" x2="79.5" y2="8.0217">
	<stop  offset="0" style="stop-color:#0467B8"/>
	<stop  offset="0.3013" style="stop-color:#033F8C"/>
	<stop  offset="0.6026" style="stop-color:#021D67"/>
	<stop  offset="0.8461" style="stop-color:#010850"/>
	<stop  offset="1" style="stop-color:#010048"/>
</linearGradient>
<path class="st3" d="M71.5,16h-25c-4.4,0-8-3.6-8-8v0c0-4.4,3.6-8,8-8l25,0c4.4,0,8,3.6,8,8v0C79.5,12.5,75.9,16,71.5,16z"/>
<linearGradient id="SVGID_5_" gradientUnits="userSpaceOnUse" x1="18.1699" y1="31.5217" x2="31.8301" y2="31.5217">
	<stop  offset="0" style="stop-color:#0467B8"/>
	<stop  offset="0.3013" style="stop-color:#033F8C"/>
	<stop  offset="0.6026" style="stop-color:#021D67"/>
	<stop  offset="0.8461" style="stop-color:#010850"/>
	<stop  offset="1" style="stop-color:#010048"/>
</linearGradient>
<polygon class="st4" points="31.8,33.4 23.2,38.4 18.2,29.7 26.8,24.7 "/>
<linearGradient id="SVGID_6_" gradientUnits="userSpaceOnUse" x1="85.0589" y1="29.5217" x2="98.9411" y2="29.5217">
	<stop  offset="0" style="stop-color:#0467B8"/>
	<stop  offset="0.3013" style="stop-color:#033F8C"/>
	<stop  offset="0.6026" style="stop-color:#021D67"/>
	<stop  offset="0.8461" style="stop-color:#010850"/>
	<stop  offset="1" style="stop-color:#010048"/>
</linearGradient>
<polygon class="st5" points="98.9,28.2 93.3,36.5 85.1,30.9 90.7,22.6 "/>
<linearGradient id="SVGID_7_" gradientUnits="userSpaceOnUse" x1="51.5" y1="19.5217" x2="66.5" y2="19.5217">
	<stop  offset="0" style="stop-color:#0467B8"/>
	<stop  offset="0.3013" style="stop-color:#033F8C"/>
	<stop  offset="0.6026" style="stop-color:#021D67"/>
	<stop  offset="0.8461" style="stop-color:#010850"/>
	<stop  offset="1" style="stop-color:#010048"/>
</linearGradient>
<rect x="51.5" y="13.5" class="st6" width="15" height="12"/>
<linearGradient id="SVGID_8_" gradientUnits="userSpaceOnUse" x1="33.6746" y1="48.5567" x2="44.913" y2="48.5567">
	<stop  offset="0" style="stop-color:#0467B8"/>
	<stop  offset="0.3013" style="stop-color:#033F8C"/>
	<stop  offset="0.6026" style="stop-color:#021D67"/>
	<stop  offset="0.8461" style="stop-color:#010850"/>
	<stop  offset="1" style="stop-color:#010048"/>
</linearGradient>
<path class="st7" d="M43.2,55.1L43.2,55.1c-1.7,0.9-3.8,0.4-4.7-1.2l-4.3-7.3c-1-1.6-0.4-3.7,1.3-4.6l0,0c1.7-0.9,3.8-0.4,4.7,1.2
	l4.3,7.3C45.4,52.1,44.8,54.2,43.2,55.1z"/>
<linearGradient id="SVGID_9_" gradientUnits="userSpaceOnUse" x1="17.5384" y1="61.5386" x2="31.9408" y2="61.5386">
	<stop  offset="0" style="stop-color:#0467B8"/>
	<stop  offset="0.3013" style="stop-color:#033F8C"/>
	<stop  offset="0.6026" style="stop-color:#021D67"/>
	<stop  offset="0.8461" style="stop-color:#010850"/>
	<stop  offset="1" style="stop-color:#010048"/>
</linearGradient>
<path class="st8" d="M31.5,65.3L31.5,65.3c-1,1.6-3.1,2.2-4.7,1.2l-7.5-4.2c-1.7-0.9-2.2-3-1.3-4.6l0,0c1-1.6,3.1-2.2,4.7-1.2
	l7.5,4.2C31.9,61.7,32.4,63.7,31.5,65.3z"/>
<linearGradient id="SVGID_10_" gradientUnits="userSpaceOnUse" x1="11" y1="79.8903" x2="26.5593" y2="79.8903">
	<stop  offset="0" style="stop-color:#0467B8"/>
	<stop  offset="0.3013" style="stop-color:#033F8C"/>
	<stop  offset="0.6026" style="stop-color:#021D67"/>
	<stop  offset="0.8461" style="stop-color:#010850"/>
	<stop  offset="1" style="stop-color:#010048"/>
</linearGradient>
<path class="st9" d="M26.6,79.9L26.6,79.9c0,1.9-1.5,3.4-3.4,3.4h-8.8c-1.9,0-3.4-1.5-3.4-3.4v0c0-1.9,1.5-3.4,3.4-3.4h8.8
	C25,76.5,26.6,78,26.6,79.9z"/>
<linearGradient id="SVGID_11_" gradientUnits="userSpaceOnUse" x1="15.8096" y1="98.6946" x2="30.212" y2="98.6946">
	<stop  offset="0" style="stop-color:#0467B8"/>
	<stop  offset="0.3013" style="stop-color:#033F8C"/>
	<stop  offset="0.6026" style="stop-color:#021D67"/>
	<stop  offset="0.8461" style="stop-color:#010850"/>
	<stop  offset="1" style="stop-color:#010048"/>
</linearGradient>
<path class="st10" d="M29.7,94.9L29.7,94.9c1,1.6,0.4,3.7-1.3,4.6l-7.5,4.2c-1.7,0.9-3.8,0.4-4.7-1.2l0,0c-1-1.6-0.4-3.7,1.3-4.6
	l7.5-4.2C26.7,92.7,28.8,93.3,29.7,94.9z"/>
<linearGradient id="SVGID_12_" gradientUnits="userSpaceOnUse" x1="30.6802" y1="112.9128" x2="41.9186" y2="112.9128">
	<stop  offset="0" style="stop-color:#0467B8"/>
	<stop  offset="0.3013" style="stop-color:#033F8C"/>
	<stop  offset="0.6026" style="stop-color:#021D67"/>
	<stop  offset="0.8461" style="stop-color:#010850"/>
	<stop  offset="1" style="stop-color:#010048"/>
</linearGradient>
<path class="st11" d="M40.2,106.3L40.2,106.3c1.7,0.9,2.2,3,1.3,4.6l-4.3,7.3c-1,1.6-3.1,2.2-4.7,1.2h0c-1.7-0.9-2.2-3-1.3-4.6
	l4.3-7.3C36.4,106,38.5,105.4,40.2,106.3z"/>
<linearGradient id="SVGID_13_" gradientUnits="userSpaceOnUse" x1="51.6271" y1="118.7352" x2="58.5424" y2="118.7352">
	<stop  offset="0" style="stop-color:#0467B8"/>
	<stop  offset="0.3013" style="stop-color:#033F8C"/>
	<stop  offset="0.6026" style="stop-color:#021D67"/>
	<stop  offset="0.8461" style="stop-color:#010850"/>
	<stop  offset="1" style="stop-color:#010048"/>
</linearGradient>
<path class="st12" d="M55.1,111.1L55.1,111.1c1.9,0,3.5,1.5,3.5,3.5v8.3c0,1.9-1.5,3.5-3.5,3.5h0c-1.9,0-3.5-1.5-3.5-3.5v-8.3
	C51.6,112.7,53.2,111.1,55.1,111.1z"/>
<linearGradient id="SVGID_14_" gradientUnits="userSpaceOnUse" x1="59" y1="74.1567" x2="102" y2="74.1567">
	<stop  offset="0" style="stop-color:#0467B8"/>
	<stop  offset="0.3013" style="stop-color:#033F8C"/>
	<stop  offset="0.6026" style="stop-color:#021D67"/>
	<stop  offset="0.8461" style="stop-color:#010850"/>
	<stop  offset="1" style="stop-color:#010048"/>
</linearGradient>
<path class="st13" d="M102,81.5c0,10.8-3.6,20.7-9.7,28.3L60.1,86.3L59,38.5C82.8,38.5,102,57.8,102,81.5z"/>
</svg>
