<?xml version="1.0" encoding="utf-8"?>
<!-- Generator: Adobe Illustrator 25.2.0, SVG Export Plug-In . SVG Version: 6.00 Build 0)  -->
<svg version="1.1" id="Color" xmlns="http://www.w3.org/2000/svg" xmlns:xlink="http://www.w3.org/1999/xlink" x="0px" y="0px"
	 viewBox="0 0 74.9 55.3" style="enable-background:new 0 0 74.9 55.3;" xml:space="preserve">
<style type="text/css">
	.st0{fill:url(#SVGID_1_);}
	.st1{fill:url(#SVGID_2_);}
</style>
<g>
	<g>
		<linearGradient id="SVGID_1_" gradientUnits="userSpaceOnUse" x1="0" y1="34.8704" x2="56.8569" y2="34.8704">
			<stop  offset="0" style="stop-color:#0467B8"/>
			<stop  offset="0.3013" style="stop-color:#033F8C"/>
			<stop  offset="0.6026" style="stop-color:#021D67"/>
			<stop  offset="0.8461" style="stop-color:#010850"/>
			<stop  offset="1" style="stop-color:#010048"/>
		</linearGradient>
		<path class="st0" d="M10.2,29.1c-0.7,0-1.2,0.5-1.2,1.2v2.3c0,0.7,0.5,1.2,1.2,1.2h1.2v-4.7H10.2z M14.7,29.1h-1.2v4.7h1.2
			c0.7,0,1.2-0.5,1.2-1.2v-2.3C16,29.6,15.4,29.1,14.7,29.1z M14.7,29.1h-1.2v4.7h1.2c0.7,0,1.2-0.5,1.2-1.2v-2.3
			C16,29.6,15.4,29.1,14.7,29.1z M9,30.3v2.3c0,0.7,0.5,1.2,1.2,1.2h1.2v-4.7h-1.2C9.5,29.1,9,29.6,9,30.3z M52.4,14.4H4.5
			c-2.5,0-4.5,2-4.5,4.5v31.9c0,2.5,2,4.5,4.5,4.5h47.9c2.5,0,4.5-2,4.5-4.5V18.9C56.9,16.4,54.8,14.4,52.4,14.4z M19.3,39.5h6.8
			c0.6,0,1.1,0.5,1.1,1.1c0,0.6-0.5,1.1-1.1,1.1h-6.8c-0.6,0-1.1-0.5-1.1-1.1C18.2,40,18.7,39.5,19.3,39.5z M6.8,30.3
			c0-1.8,1.5-3.3,3.3-3.3h4.6c1.8,0,3.3,1.5,3.3,3.3v2.3c0,1.8-1.5,3.3-3.3,3.3h-4.6c-1.8,0-3.3-1.5-3.3-3.3V30.3z M7.9,39.5h6.8
			c0.6,0,1.1,0.5,1.1,1.1c0,0.6-0.5,1.1-1.1,1.1H7.9c-0.6,0-1.1-0.5-1.1-1.1C6.8,40,7.3,39.5,7.9,39.5z M30.7,47.3H7.9
			c-0.6,0-1.1-0.5-1.1-1.1c0-0.6,0.5-1.1,1.1-1.1h22.8c0.6,0,1.1,0.5,1.1,1.1C31.8,46.9,31.3,47.3,30.7,47.3z M37.5,41.6h-6.8
			c-0.6,0-1.1-0.5-1.1-1.1c0-0.6,0.5-1.1,1.1-1.1h6.8c0.6,0,1.1,0.5,1.1,1.1C38.6,41.2,38.1,41.6,37.5,41.6z M49,41.6h-6.8
			c-0.6,0-1.1-0.5-1.1-1.1c0-0.6,0.5-1.1,1.1-1.1H49c0.6,0,1.1,0.5,1.1,1.1C50,41.2,49.5,41.6,49,41.6z M44.4,32.5
			c-1.9,0-3.5-0.9-4.6-2.3c-1,1.4-2.7,2.3-4.6,2.3c-3.1,0-5.6-2.5-5.6-5.6s2.5-5.6,5.6-5.6c1.9,0,3.5,0.9,4.6,2.3
			c1-1.4,2.7-2.3,4.6-2.3c3.1,0,5.6,2.5,5.6,5.6S47.5,32.5,44.4,32.5z M44.4,23.4c-1.9,0-3.5,1.6-3.5,3.5c0,1.9,1.6,3.5,3.5,3.5
			c1.9,0,3.5-1.6,3.5-3.5C47.9,25,46.3,23.4,44.4,23.4z M35.3,23.4c-1.9,0-3.5,1.6-3.5,3.5c0,1.9,1.6,3.5,3.5,3.5
			c1.9,0,3.5-1.6,3.5-3.5C38.8,25,37.2,23.4,35.3,23.4z M16,32.6v-2.3c0-0.7-0.5-1.2-1.2-1.2h-1.2v4.7h1.2
			C15.4,33.8,16,33.3,16,32.6z M10.2,33.8h1.2v-4.7h-1.2c-0.7,0-1.2,0.5-1.2,1.2v2.3C9,33.3,9.5,33.8,10.2,33.8z"/>
	</g>
</g>
<g>
	<g>
		<linearGradient id="SVGID_2_" gradientUnits="userSpaceOnUse" x1="18.0416" y1="20.4481" x2="74.8993" y2="20.4481">
			<stop  offset="0" style="stop-color:#0467B8"/>
			<stop  offset="0.3013" style="stop-color:#033F8C"/>
			<stop  offset="0.6026" style="stop-color:#021D67"/>
			<stop  offset="0.8461" style="stop-color:#010850"/>
			<stop  offset="1" style="stop-color:#010048"/>
		</linearGradient>
		<path class="st1" d="M70.4,0H22.5C20.1,0,18,2,18,4.5v2.3c0,0.6,0.5,1.1,1.1,1.1h53.7v4.7H62.4c-0.6,0-1.1,0.5-1.1,1.1
			c0,0.6,0.5,1.1,1.1,1.1h10.3v21.7c0,1.3-1.1,2.4-2.4,2.4h-8c-0.6,0-1.1,0.5-1.1,1.1c0,0.6,0.5,1.1,1.1,1.1h8c2.5,0,4.5-2,4.5-4.5
			V4.5C74.9,2,72.9,0,70.4,0z M72.8,5.7H20.2V4.5c0-1.3,1.1-2.4,2.4-2.4h47.9c1.3,0,2.4,1.1,2.4,2.4V5.7z"/>
	</g>
</g>
</svg>
