<?xml version="1.0" encoding="utf-8"?>
<!-- Generator: Adobe Illustrator 25.2.0, SVG Export Plug-In . SVG Version: 6.00 Build 0)  -->
<svg version="1.1" id="Color" xmlns="http://www.w3.org/2000/svg" xmlns:xlink="http://www.w3.org/1999/xlink" x="0px" y="0px"
	 viewBox="0 0 51.5 62.5" style="enable-background:new 0 0 51.5 62.5;" xml:space="preserve">
<style type="text/css">
	.st0{fill:url(#SVGID_1_);}
	.st1{fill:url(#SVGID_2_);}
	.st2{fill:url(#SVGID_3_);}
	.st3{fill:url(#SVGID_4_);}
	.st4{fill:url(#SVGID_5_);}
</style>
<linearGradient id="SVGID_1_" gradientUnits="userSpaceOnUse" x1="0" y1="31.2261" x2="51.5332" y2="31.2261">
	<stop  offset="0" style="stop-color:#0467B8"/>
	<stop  offset="0.3013" style="stop-color:#033F8C"/>
	<stop  offset="0.6026" style="stop-color:#021D67"/>
	<stop  offset="0.8461" style="stop-color:#010850"/>
	<stop  offset="1" style="stop-color:#010048"/>
</linearGradient>
<path class="st0" d="M49.6,12L38.4,1.7C37.2,0.6,35.5,0,33.8,0H6.4C2.9,0,0,2.6,0,5.9v50.7c0,3.2,2.9,5.9,6.4,5.9h38.6
	c3.6,0,6.4-2.6,6.4-5.9V16.1C51.5,14.5,50.8,13,49.6,12z M44.6,15.6H34.4V6.3L44.6,15.6z M2.6,58.9V2.7h25.7v14
	c0,1.8,1.7,3.2,3.9,3.2h16.7v38.9H2.6z"/>
<linearGradient id="SVGID_2_" gradientUnits="userSpaceOnUse" x1="9.7967" y1="29.159" x2="41.334" y2="29.159">
	<stop  offset="0" style="stop-color:#0467B8"/>
	<stop  offset="0.3013" style="stop-color:#033F8C"/>
	<stop  offset="0.6026" style="stop-color:#021D67"/>
	<stop  offset="0.8461" style="stop-color:#010850"/>
	<stop  offset="1" style="stop-color:#010048"/>
</linearGradient>
<path class="st1" d="M40.1,31.2h-29c-0.7,0-1.3-0.6-1.3-1.3v-1.6c0-0.7,0.6-1.3,1.3-1.3h29c0.7,0,1.3,0.6,1.3,1.3V30
	C41.3,30.7,40.8,31.2,40.1,31.2z"/>
<linearGradient id="SVGID_3_" gradientUnits="userSpaceOnUse" x1="9.7967" y1="19.2808" x2="23.8878" y2="19.2808">
	<stop  offset="0" style="stop-color:#0467B8"/>
	<stop  offset="0.3013" style="stop-color:#033F8C"/>
	<stop  offset="0.6026" style="stop-color:#021D67"/>
	<stop  offset="0.8461" style="stop-color:#010850"/>
	<stop  offset="1" style="stop-color:#010048"/>
</linearGradient>
<path class="st2" d="M22.6,21.4H11.1c-0.7,0-1.3-0.6-1.3-1.3v-1.6c0-0.7,0.6-1.3,1.3-1.3h11.5c0.7,0,1.3,0.6,1.3,1.3v1.6
	C23.9,20.8,23.3,21.4,22.6,21.4z"/>
<linearGradient id="SVGID_4_" gradientUnits="userSpaceOnUse" x1="9.7967" y1="37.8177" x2="41.334" y2="37.8177">
	<stop  offset="0" style="stop-color:#0467B8"/>
	<stop  offset="0.3013" style="stop-color:#033F8C"/>
	<stop  offset="0.6026" style="stop-color:#021D67"/>
	<stop  offset="0.8461" style="stop-color:#010850"/>
	<stop  offset="1" style="stop-color:#010048"/>
</linearGradient>
<path class="st3" d="M40.1,39.9h-29c-0.7,0-1.3-0.6-1.3-1.3V37c0-0.7,0.6-1.3,1.3-1.3h29c0.7,0,1.3,0.6,1.3,1.3v1.6
	C41.3,39.3,40.8,39.9,40.1,39.9z"/>
<linearGradient id="SVGID_5_" gradientUnits="userSpaceOnUse" x1="9.7967" y1="46.4763" x2="41.334" y2="46.4763">
	<stop  offset="0" style="stop-color:#0467B8"/>
	<stop  offset="0.3013" style="stop-color:#033F8C"/>
	<stop  offset="0.6026" style="stop-color:#021D67"/>
	<stop  offset="0.8461" style="stop-color:#010850"/>
	<stop  offset="1" style="stop-color:#010048"/>
</linearGradient>
<path class="st4" d="M40.1,48.5h-29c-0.7,0-1.3-0.6-1.3-1.3v-1.6c0-0.7,0.6-1.3,1.3-1.3h29c0.7,0,1.3,0.6,1.3,1.3v1.6
	C41.3,48,40.8,48.5,40.1,48.5z"/>
</svg>
