<?xml version="1.0" encoding="utf-8"?>
<!-- Generator: Adobe Illustrator 25.2.0, SVG Export Plug-In . SVG Version: 6.00 Build 0)  -->
<svg version="1.1" id="Layer_1" xmlns="http://www.w3.org/2000/svg" xmlns:xlink="http://www.w3.org/1999/xlink" x="0px" y="0px"
	 viewBox="0 0 1174.9 1584.7" style="enable-background:new 0 0 1174.9 1584.7;" xml:space="preserve">
<style type="text/css">
	.st0{fill:#FFFFFF;}
	.st1{fill:#CCCCCB;}
	.st2{fill:#F26E24;}
	.st3{fill:url(#SVGID_1_);}
</style>
<path class="st0" d="M1100.3,1584.7H74.6c-41.2,0-74.6-33.4-74.6-74.6V74.6C0,33.4,33.4,0,74.6,0h1025.7c41.2,0,74.6,33.4,74.6,74.6
	v1435.5C1174.9,1551.3,1141.5,1584.7,1100.3,1584.7z"/>
<g>
	<path class="st1" d="M548.8,429.3H118c-9.5,0-17.2-7.7-17.2-17.2v-80.4c0-9.5,7.7-17.2,17.2-17.2h430.8c9.5,0,17.2,7.7,17.2,17.2
		v80.4C566,421.6,558.3,429.3,548.8,429.3z"/>
	<path class="st1" d="M1056.8,429.3H626c-9.5,0-17.2-7.7-17.2-17.2v-80.4c0-9.5,7.7-17.2,17.2-17.2h430.8c9.5,0,17.2,7.7,17.2,17.2
		v80.4C1074,421.6,1066.3,429.3,1056.8,429.3z"/>
</g>
<g>
	<path class="st1" d="M548.8,700.3H118c-9.5,0-17.2-7.7-17.2-17.2v-80.4c0-9.5,7.7-17.2,17.2-17.2h430.8c9.5,0,17.2,7.7,17.2,17.2
		v80.4C566,692.6,558.3,700.3,548.8,700.3z"/>
	<path class="st1" d="M1056.8,700.3H626c-9.5,0-17.2-7.7-17.2-17.2v-80.4c0-9.5,7.7-17.2,17.2-17.2h430.8c9.5,0,17.2,7.7,17.2,17.2
		v80.4C1074,692.6,1066.3,700.3,1056.8,700.3z"/>
</g>
<g>
	<path class="st1" d="M548.8,971.3H118c-9.5,0-17.2-7.7-17.2-17.2v-80.4c0-9.5,7.7-17.2,17.2-17.2h430.8c9.5,0,17.2,7.7,17.2,17.2
		v80.4C566,963.6,558.3,971.3,548.8,971.3z"/>
	<path class="st1" d="M1056.8,971.3H626c-9.5,0-17.2-7.7-17.2-17.2v-80.4c0-9.5,7.7-17.2,17.2-17.2h430.8c9.5,0,17.2,7.7,17.2,17.2
		v80.4C1074,963.6,1066.3,971.3,1056.8,971.3z"/>
</g>
<g>
	<path class="st1" d="M548.8,1232.3H118c-9.5,0-17.2-7.7-17.2-17.2v-80.4c0-9.5,7.7-17.2,17.2-17.2h430.8c9.5,0,17.2,7.7,17.2,17.2
		v80.4C566,1224.6,558.3,1232.3,548.8,1232.3z"/>
	<path class="st1" d="M1056.8,1232.3H626c-9.5,0-17.2-7.7-17.2-17.2v-80.4c0-9.5,7.7-17.2,17.2-17.2h430.8c9.5,0,17.2,7.7,17.2,17.2
		v80.4C1074,1224.6,1066.3,1232.3,1056.8,1232.3z"/>
</g>
<path class="st2" d="M779.6,1497.3H395.2c-37.6,0-68.2-30.5-68.2-68.2v0c0-37.6,30.5-68.2,68.2-68.2h384.4
	c37.6,0,68.2,30.5,68.2,68.2v0C847.8,1466.7,817.3,1497.3,779.6,1497.3z"/>
<linearGradient id="SVGID_1_" gradientUnits="userSpaceOnUse" x1="100.8582" y1="177.5108" x2="1074.0023" y2="177.5108">
	<stop  offset="0" style="stop-color:#1669B3"/>
	<stop  offset="6.693882e-02" style="stop-color:#1B60A4"/>
	<stop  offset="0.3761" style="stop-color:#1E3F77"/>
	<stop  offset="0.6458" style="stop-color:#19285A"/>
	<stop  offset="0.8628" style="stop-color:#14194B"/>
	<stop  offset="1" style="stop-color:#121245"/>
</linearGradient>
<rect x="100.9" y="162.3" class="st3" width="973.1" height="30.4"/>
</svg>
