<?xml version="1.0" encoding="utf-8"?>
<!-- Generator: Adobe Illustrator 25.2.0, SVG Export Plug-In . SVG Version: 6.00 Build 0)  -->
<svg version="1.1" id="Layer_1" xmlns="http://www.w3.org/2000/svg" xmlns:xlink="http://www.w3.org/1999/xlink" x="0px" y="0px"
	 viewBox="0 0 182.2 130.4" style="enable-background:new 0 0 182.2 130.4;" xml:space="preserve">
<style type="text/css">
	.st0{fill:url(#SVGID_1_);}
	.st1{fill:url(#SVGID_2_);}
	.st2{fill:url(#SVGID_3_);}
	.st3{fill:url(#SVGID_4_);}
	.st4{fill:url(#SVGID_5_);}
	.st5{fill:url(#SVGID_6_);}
	.st6{fill:url(#SVGID_7_);}
	.st7{fill:url(#SVGID_8_);}
	.st8{fill:url(#SVGID_9_);}
	.st9{fill:#FFFFFF;}
</style>
<linearGradient id="SVGID_1_" gradientUnits="userSpaceOnUse" x1="48.1594" y1="90.6926" x2="64.9128" y2="90.6926">
	<stop  offset="0" style="stop-color:#0467B8"/>
	<stop  offset="0.3013" style="stop-color:#033F8C"/>
	<stop  offset="0.6026" style="stop-color:#021D67"/>
	<stop  offset="0.8461" style="stop-color:#010850"/>
	<stop  offset="1" style="stop-color:#010048"/>
</linearGradient>
<path class="st0" d="M64.9,65.1l-4.8,4.1c0,0-4.8,11.7-5.5,15.9s-1.4,14.5-1.4,14.5l-1.4,19.3c0,0-2.1,4.1-3.5-1.4
	s5.5-42.8,5.5-42.8s1.4-6.2,2.8-9.7s4.1-4.1,4.1-4.1L64.9,65.1z"/>
<linearGradient id="SVGID_2_" gradientUnits="userSpaceOnUse" x1="58.0083" y1="56.1148" x2="88.3882" y2="56.1148">
	<stop  offset="0" style="stop-color:#0467B8"/>
	<stop  offset="0.3013" style="stop-color:#033F8C"/>
	<stop  offset="0.6026" style="stop-color:#021D67"/>
	<stop  offset="0.8461" style="stop-color:#010850"/>
	<stop  offset="1" style="stop-color:#010048"/>
</linearGradient>
<circle class="st1" cx="73.2" cy="56.1" r="15.2"/>
<linearGradient id="SVGID_3_" gradientUnits="userSpaceOnUse" x1="94.6727" y1="88.8667" x2="115.3159" y2="88.8667">
	<stop  offset="0" style="stop-color:#0467B8"/>
	<stop  offset="0.3013" style="stop-color:#033F8C"/>
	<stop  offset="0.6026" style="stop-color:#021D67"/>
	<stop  offset="0.8461" style="stop-color:#010850"/>
	<stop  offset="1" style="stop-color:#010048"/>
</linearGradient>
<path class="st2" d="M110.5,65.8l-2.2-0.4l-6.1-1c0,0,8.3,19.3,10.4,27.6s2.8,23.5,2.8,26.9s-2.8,2.1-3.5,1.4s0.7-19.3-1.4-24.2
	s-10.4-31.1-13.8-31.8s-3.5-10.7,8.3-7.1C116.7,60.9,110.5,65.8,110.5,65.8z"/>
<linearGradient id="SVGID_4_" gradientUnits="userSpaceOnUse" x1="10.3671" y1="20.0287" x2="40.747" y2="20.0287">
	<stop  offset="0" style="stop-color:#0467B8"/>
	<stop  offset="0.3013" style="stop-color:#033F8C"/>
	<stop  offset="0.6026" style="stop-color:#021D67"/>
	<stop  offset="0.8461" style="stop-color:#010850"/>
	<stop  offset="1" style="stop-color:#010048"/>
</linearGradient>
<path class="st3" d="M13.1,22.3c0,0,5.5-9,11.7-10.4s9,8.3,9,8.3L38,32.6l2.8-1.4c0,0-2.8-17.3-11.7-22.8S10.4,20.9,10.4,20.9
	S10.4,25.7,13.1,22.3z"/>
<linearGradient id="SVGID_5_" gradientUnits="userSpaceOnUse" x1="84.2455" y1="55.4243" x2="104.9591" y2="55.4243">
	<stop  offset="0" style="stop-color:#0467B8"/>
	<stop  offset="0.3013" style="stop-color:#033F8C"/>
	<stop  offset="0.6026" style="stop-color:#021D67"/>
	<stop  offset="0.8461" style="stop-color:#010850"/>
	<stop  offset="1" style="stop-color:#010048"/>
</linearGradient>
<circle class="st4" cx="94.6" cy="55.4" r="10.4"/>
<linearGradient id="SVGID_6_" gradientUnits="userSpaceOnUse" x1="24.7412" y1="51.4092" x2="64.2426" y2="51.4092">
	<stop  offset="0" style="stop-color:#0467B8"/>
	<stop  offset="0.3013" style="stop-color:#033F8C"/>
	<stop  offset="0.6026" style="stop-color:#021D67"/>
	<stop  offset="0.8461" style="stop-color:#010850"/>
	<stop  offset="1" style="stop-color:#010048"/>
</linearGradient>
<path class="st5" d="M27.6,72c0,0-13.1-34.5,16.6-43.5s19.3,27.6,13.1,33.8S30.4,82.4,27.6,72z"/>
<linearGradient id="SVGID_7_" gradientUnits="userSpaceOnUse" x1="125.6727" y1="98.3091" x2="152.6003" y2="98.3091">
	<stop  offset="0" style="stop-color:#0467B8"/>
	<stop  offset="0.3013" style="stop-color:#033F8C"/>
	<stop  offset="0.6026" style="stop-color:#021D67"/>
	<stop  offset="0.8461" style="stop-color:#010850"/>
	<stop  offset="1" style="stop-color:#010048"/>
</linearGradient>
<path class="st6" d="M136,75.4l13.1,18.6c0,0,1.4,0.7,2.1,5.5c0.7,4.8,1.4,20,1.4,20s-1.4,3.5-2.8,0s-2.8-21.4-2.8-21.4l-21.4-22.8
	H136z"/>
<linearGradient id="SVGID_8_" gradientUnits="userSpaceOnUse" x1="103.9177" y1="55.9987" x2="171.8104" y2="55.9987">
	<stop  offset="0" style="stop-color:#0467B8"/>
	<stop  offset="0.3013" style="stop-color:#033F8C"/>
	<stop  offset="0.6026" style="stop-color:#021D67"/>
	<stop  offset="0.8461" style="stop-color:#010850"/>
	<stop  offset="1" style="stop-color:#010048"/>
</linearGradient>
<path class="st7" d="M127.7,77.5c0,0-29.7-0.7-22.8-32.5c0,0,2.1-13.1,20.7-11s38.7,9.7,44.9,31.8c0,0,6.2,13.1-9,11.7
	C146.4,76.1,137.4,79.6,127.7,77.5z"/>
<linearGradient id="SVGID_9_" gradientUnits="userSpaceOnUse" x1="67.5791" y1="96.2581" x2="80.2268" y2="96.2581">
	<stop  offset="0" style="stop-color:#0467B8"/>
	<stop  offset="0.3013" style="stop-color:#033F8C"/>
	<stop  offset="0.6026" style="stop-color:#021D67"/>
	<stop  offset="0.8461" style="stop-color:#010850"/>
	<stop  offset="1" style="stop-color:#010048"/>
</linearGradient>
<path class="st8" d="M80.2,69.6l-8.4,17.6c0,0-1.4,4.1-1.4,15.2c0,6.9,2.8,19.3,2.8,19.3s-0.7,2.8-3.5,0S67,90.6,69.1,84.4
	s3.5-14.5,3.5-14.5L80.2,69.6z"/>
<path class="st9" d="M29,58.2c0,0-0.7-15.9,4.1-18c4.8-2.1,9,13.1-4.1,18.6"/>
</svg>
