<?xml version="1.0" encoding="utf-8"?>
<!-- Generator: Adobe Illustrator 25.2.0, SVG Export Plug-In . SVG Version: 6.00 Build 0)  -->
<svg version="1.1" id="Layer_1" xmlns="http://www.w3.org/2000/svg" xmlns:xlink="http://www.w3.org/1999/xlink" x="0px" y="0px"
	 viewBox="0 0 869.3 732.5" style="enable-background:new 0 0 869.3 732.5;" xml:space="preserve">
<style type="text/css">
	.st0{fill:url(#SVGID_1_);}
	.st1{fill:#E5E8EB;}
	.st2{fill:url(#SVGID_2_);}
	.st3{fill:url(#SVGID_3_);}
	.st4{fill:url(#SVGID_4_);}
	.st5{fill:url(#SVGID_5_);}
	.st6{fill:url(#SVGID_6_);}
	.st7{fill:#F26E24;}
	.st8{fill:url(#SVGID_7_);}
</style>
<linearGradient id="SVGID_1_" gradientUnits="userSpaceOnUse" x1="276.5782" y1="499.2646" x2="614.6978" y2="499.2646">
	<stop  offset="0" style="stop-color:#1669B3"/>
	<stop  offset="6.693882e-02" style="stop-color:#1B60A4"/>
	<stop  offset="0.3761" style="stop-color:#1E3F77"/>
	<stop  offset="0.6458" style="stop-color:#19285A"/>
	<stop  offset="0.8628" style="stop-color:#14194B"/>
	<stop  offset="1" style="stop-color:#121245"/>
</linearGradient>
<polygon class="st0" points="614.7,449.4 472.3,704.8 456.8,732.5 431,692 276.6,449.4 371.6,266 531.5,266 "/>
<circle class="st1" cx="447.6" cy="450.5" r="43.4"/>
<polygon class="st1" points="472.3,464 472.3,704.8 456.8,732.5 431,692 431,464 "/>
<linearGradient id="SVGID_2_" gradientUnits="userSpaceOnUse" x1="372.6333" y1="227.0949" x2="531.1302" y2="227.0949">
	<stop  offset="0" style="stop-color:#1669B3"/>
	<stop  offset="6.693882e-02" style="stop-color:#1B60A4"/>
	<stop  offset="0.3761" style="stop-color:#1E3F77"/>
	<stop  offset="0.6458" style="stop-color:#19285A"/>
	<stop  offset="0.8628" style="stop-color:#14194B"/>
	<stop  offset="1" style="stop-color:#121245"/>
</linearGradient>
<rect x="372.6" y="212" class="st2" width="158.5" height="30.2"/>
<linearGradient id="SVGID_3_" gradientUnits="userSpaceOnUse" x1="372.6333" y1="167.0949" x2="531.1302" y2="167.0949">
	<stop  offset="0" style="stop-color:#1669B3"/>
	<stop  offset="6.693882e-02" style="stop-color:#1B60A4"/>
	<stop  offset="0.3761" style="stop-color:#1E3F77"/>
	<stop  offset="0.6458" style="stop-color:#19285A"/>
	<stop  offset="0.8628" style="stop-color:#14194B"/>
	<stop  offset="1" style="stop-color:#121245"/>
</linearGradient>
<rect x="372.6" y="152" class="st3" width="158.5" height="30.2"/>
<linearGradient id="SVGID_4_" gradientUnits="userSpaceOnUse" x1="372.6333" y1="66.0949" x2="531.1302" y2="66.0949">
	<stop  offset="0" style="stop-color:#1669B3"/>
	<stop  offset="6.693882e-02" style="stop-color:#1B60A4"/>
	<stop  offset="0.3761" style="stop-color:#1E3F77"/>
	<stop  offset="0.6458" style="stop-color:#19285A"/>
	<stop  offset="0.8628" style="stop-color:#14194B"/>
	<stop  offset="1" style="stop-color:#121245"/>
</linearGradient>
<rect x="372.6" y="51" class="st4" width="158.5" height="30.2"/>
<linearGradient id="SVGID_5_" gradientUnits="userSpaceOnUse" x1="372.6333" y1="15.0949" x2="531.1302" y2="15.0949">
	<stop  offset="0" style="stop-color:#1669B3"/>
	<stop  offset="6.693882e-02" style="stop-color:#1B60A4"/>
	<stop  offset="0.3761" style="stop-color:#1E3F77"/>
	<stop  offset="0.6458" style="stop-color:#19285A"/>
	<stop  offset="0.8628" style="stop-color:#14194B"/>
	<stop  offset="1" style="stop-color:#121245"/>
</linearGradient>
<rect x="372.6" class="st5" width="158.5" height="30.2"/>
<linearGradient id="SVGID_6_" gradientUnits="userSpaceOnUse" x1="372.6333" y1="116.0949" x2="531.1302" y2="116.0949">
	<stop  offset="0" style="stop-color:#1669B3"/>
	<stop  offset="6.693882e-02" style="stop-color:#1B60A4"/>
	<stop  offset="0.3761" style="stop-color:#1E3F77"/>
	<stop  offset="0.6458" style="stop-color:#19285A"/>
	<stop  offset="0.8628" style="stop-color:#14194B"/>
	<stop  offset="1" style="stop-color:#121245"/>
</linearGradient>
<rect x="372.6" y="101" class="st6" width="158.5" height="30.2"/>
<g>
	<g>
		<g>
			<path class="st7" d="M109.1,139.2h-4.5L13.8,311.7h186.1L109.1,139.2z M105.1,164.7h3.4l68.7,130.4H36.5L105.1,164.7z"/>
		</g>
		<path class="st7" d="M206.8,294.3c0,57.1-46.3,103.4-103.4,103.4S0,351.4,0,294.3"/>
	</g>
</g>
<g>
	<g>
		<g>
			<path class="st7" d="M771.6,139.2H767l-90.8,172.5h186.1L771.6,139.2z M767.6,164.7h3.4l68.7,130.4H699L767.6,164.7z"/>
		</g>
		<path class="st7" d="M869.3,294.3c0,57.1-46.3,103.4-103.4,103.4c-57.1,0-103.4-46.3-103.4-103.4"/>
	</g>
</g>
<linearGradient id="SVGID_7_" gradientUnits="userSpaceOnUse" x1="76.5922" y1="125.4707" x2="800.3378" y2="125.4707">
	<stop  offset="0" style="stop-color:#1669B3"/>
	<stop  offset="6.693882e-02" style="stop-color:#1B60A4"/>
	<stop  offset="0.3761" style="stop-color:#1E3F77"/>
	<stop  offset="0.6458" style="stop-color:#19285A"/>
	<stop  offset="0.8628" style="stop-color:#14194B"/>
	<stop  offset="1" style="stop-color:#121245"/>
</linearGradient>
<path class="st8" d="M772.8,156.5H104.1c-15.2,0-27.5-12.3-27.5-27.5V122c0-15.2,12.3-27.5,27.5-27.5h668.7
	c15.2,0,27.5,12.3,27.5,27.5v6.9C800.3,144.2,788,156.5,772.8,156.5z"/>
</svg>
