<?xml version="1.0" encoding="utf-8"?>
<!-- Generator: Adobe Illustrator 25.2.0, SVG Export Plug-In . SVG Version: 6.00 Build 0)  -->
<svg version="1.1" id="Layer_1" xmlns="http://www.w3.org/2000/svg" xmlns:xlink="http://www.w3.org/1999/xlink" x="0px" y="0px"
	 viewBox="0 0 142 143" style="enable-background:new 0 0 142 143;" xml:space="preserve">
<style type="text/css">
	.st0{fill:url(#SVGID_1_);}
	.st1{fill:url(#SVGID_2_);}
	.st2{fill:url(#SVGID_3_);}
	.st3{fill:url(#SVGID_4_);}
	.st4{fill:url(#SVGID_5_);}
	.st5{fill:url(#SVGID_6_);}
	.st6{fill:url(#SVGID_7_);}
	.st7{fill:url(#SVGID_8_);}
	.st8{fill:url(#SVGID_9_);}
</style>
<g>
	<g>
		<g>
			<linearGradient id="SVGID_1_" gradientUnits="userSpaceOnUse" x1="2.25" y1="58.55" x2="32.65" y2="58.55">
				<stop  offset="0" style="stop-color:#0467B8"/>
				<stop  offset="0.3013" style="stop-color:#033F8C"/>
				<stop  offset="0.6026" style="stop-color:#021D67"/>
				<stop  offset="0.8461" style="stop-color:#010850"/>
				<stop  offset="1" style="stop-color:#010048"/>
			</linearGradient>
			<path class="st0" d="M17.8,44.5h-0.7L2.2,72.6h30.4L17.8,44.5z M17.2,48.6h0.6L29,69.9H6L17.2,48.6z"/>
		</g>
		<linearGradient id="SVGID_2_" gradientUnits="userSpaceOnUse" x1="0" y1="78.2559" x2="33.7795" y2="78.2559">
			<stop  offset="0" style="stop-color:#0467B8"/>
			<stop  offset="0.3013" style="stop-color:#033F8C"/>
			<stop  offset="0.6026" style="stop-color:#021D67"/>
			<stop  offset="0.8461" style="stop-color:#010850"/>
			<stop  offset="1" style="stop-color:#010048"/>
		</linearGradient>
		<path class="st1" d="M33.8,69.8c0,9.3-7.6,16.9-16.9,16.9S0,79.1,0,69.8"/>
	</g>
	<g>
		<g>
			<linearGradient id="SVGID_3_" gradientUnits="userSpaceOnUse" x1="110.47" y1="58.55" x2="140.87" y2="58.55">
				<stop  offset="0" style="stop-color:#0467B8"/>
				<stop  offset="0.3013" style="stop-color:#033F8C"/>
				<stop  offset="0.6026" style="stop-color:#021D67"/>
				<stop  offset="0.8461" style="stop-color:#010850"/>
				<stop  offset="1" style="stop-color:#010048"/>
			</linearGradient>
			<path class="st2" d="M126,44.5h-0.7l-14.8,28.2h30.4L126,44.5z M125.4,48.6h0.6l11.2,21.3h-23L125.4,48.6z"/>
		</g>
		<linearGradient id="SVGID_4_" gradientUnits="userSpaceOnUse" x1="108.2205" y1="78.2559" x2="142" y2="78.2559">
			<stop  offset="0" style="stop-color:#0467B8"/>
			<stop  offset="0.3013" style="stop-color:#033F8C"/>
			<stop  offset="0.6026" style="stop-color:#021D67"/>
			<stop  offset="0.8461" style="stop-color:#010850"/>
			<stop  offset="1" style="stop-color:#010048"/>
		</linearGradient>
		<path class="st3" d="M142,69.8c0,9.3-7.6,16.9-16.9,16.9s-16.9-7.6-16.9-16.9"/>
	</g>
	<linearGradient id="SVGID_5_" gradientUnits="userSpaceOnUse" x1="55.8622" y1="14.6378" x2="85.1378" y2="14.6378">
		<stop  offset="0" style="stop-color:#0467B8"/>
		<stop  offset="0.3013" style="stop-color:#033F8C"/>
		<stop  offset="0.6026" style="stop-color:#021D67"/>
		<stop  offset="0.8461" style="stop-color:#010850"/>
		<stop  offset="1" style="stop-color:#010048"/>
	</linearGradient>
	<circle class="st4" cx="70.5" cy="14.6" r="14.6"/>
	<linearGradient id="SVGID_6_" gradientUnits="userSpaceOnUse" x1="12.5118" y1="42.2244" x2="130.7402" y2="42.2244">
		<stop  offset="0" style="stop-color:#0467B8"/>
		<stop  offset="0.3013" style="stop-color:#033F8C"/>
		<stop  offset="0.6026" style="stop-color:#021D67"/>
		<stop  offset="0.8461" style="stop-color:#010850"/>
		<stop  offset="1" style="stop-color:#010048"/>
	</linearGradient>
	<path class="st5" d="M126.2,47.3H17c-2.5,0-4.5-2-4.5-4.5v-1.1c0-2.5,2-4.5,4.5-4.5h109.2c2.5,0,4.5,2,4.5,4.5v1.1
		C130.7,45.3,128.7,47.3,126.2,47.3z"/>
	<linearGradient id="SVGID_7_" gradientUnits="userSpaceOnUse" x1="53.0472" y1="95.1457" x2="67.685" y2="95.1457">
		<stop  offset="0" style="stop-color:#0467B8"/>
		<stop  offset="0.3013" style="stop-color:#033F8C"/>
		<stop  offset="0.6026" style="stop-color:#021D67"/>
		<stop  offset="0.8461" style="stop-color:#010850"/>
		<stop  offset="1" style="stop-color:#010048"/>
	</linearGradient>
	<path class="st6" d="M61.2,143h-1.6c-3.6,0-6.5-2.9-6.5-6.5V47.3h14.6v89.2C67.7,140.1,64.8,143,61.2,143z"/>
	<linearGradient id="SVGID_8_" gradientUnits="userSpaceOnUse" x1="73.315" y1="95.1457" x2="87.9528" y2="95.1457">
		<stop  offset="0" style="stop-color:#0467B8"/>
		<stop  offset="0.3013" style="stop-color:#033F8C"/>
		<stop  offset="0.6026" style="stop-color:#021D67"/>
		<stop  offset="0.8461" style="stop-color:#010850"/>
		<stop  offset="1" style="stop-color:#010048"/>
	</linearGradient>
	<path class="st7" d="M81.5,143h-1.6c-3.6,0-6.5-2.9-6.5-6.5V47.3H88v89.2C88,140.1,85,143,81.5,143z"/>
	<linearGradient id="SVGID_9_" gradientUnits="userSpaceOnUse" x1="53.0472" y1="70.937" x2="87.9528" y2="70.937">
		<stop  offset="0" style="stop-color:#0467B8"/>
		<stop  offset="0.3013" style="stop-color:#033F8C"/>
		<stop  offset="0.6026" style="stop-color:#021D67"/>
		<stop  offset="0.8461" style="stop-color:#010850"/>
		<stop  offset="1" style="stop-color:#010048"/>
	</linearGradient>
	<rect x="53" y="47.3" class="st8" width="34.9" height="47.3"/>
</g>
</svg>
