<?xml version="1.0" encoding="utf-8"?>
<!-- Generator: Adobe Illustrator 25.2.0, SVG Export Plug-In . SVG Version: 6.00 Build 0)  -->
<svg version="1.1" id="Layer_1" xmlns="http://www.w3.org/2000/svg" xmlns:xlink="http://www.w3.org/1999/xlink" x="0px" y="0px"
	 viewBox="0 0 1174.9 1584.7" style="enable-background:new 0 0 1174.9 1584.7;" xml:space="preserve">
<style type="text/css">
	.st0{fill:#FFFFFF;}
	.st1{fill:url(#SVGID_1_);}
	.st2{fill:url(#SVGID_2_);}
	.st3{fill:url(#SVGID_3_);}
	.st4{fill:url(#SVGID_4_);}
	.st5{fill:url(#SVGID_5_);}
	.st6{fill:url(#SVGID_6_);}
	.st7{fill:url(#SVGID_7_);}
	.st8{fill:url(#SVGID_8_);}
	.st9{fill:url(#SVGID_9_);}
	.st10{fill:url(#SVGID_10_);}
	.st11{fill:#F26E24;}
</style>
<path class="st0" d="M1100.3,1584.7H74.6c-41.2,0-74.6-33.4-74.6-74.6V74.6C0,33.4,33.4,0,74.6,0h1025.7c41.2,0,74.6,33.4,74.6,74.6
	v1435.5C1174.9,1551.3,1141.5,1584.7,1100.3,1584.7z"/>
<g>
	<linearGradient id="SVGID_1_" gradientUnits="userSpaceOnUse" x1="147.0981" y1="197.5547" x2="1060.0581" y2="197.5547">
		<stop  offset="0" style="stop-color:#1669B3"/>
		<stop  offset="6.693882e-02" style="stop-color:#1B60A4"/>
		<stop  offset="0.3761" style="stop-color:#1E3F77"/>
		<stop  offset="0.6458" style="stop-color:#19285A"/>
		<stop  offset="0.8628" style="stop-color:#14194B"/>
		<stop  offset="1" style="stop-color:#121245"/>
	</linearGradient>
	<rect x="147.1" y="162.3" class="st1" width="913" height="70.5"/>
	<linearGradient id="SVGID_2_" gradientUnits="userSpaceOnUse" x1="147.0981" y1="334.025" x2="997.3453" y2="334.025">
		<stop  offset="0" style="stop-color:#1669B3"/>
		<stop  offset="6.693882e-02" style="stop-color:#1B60A4"/>
		<stop  offset="0.3761" style="stop-color:#1E3F77"/>
		<stop  offset="0.6458" style="stop-color:#19285A"/>
		<stop  offset="0.8628" style="stop-color:#14194B"/>
		<stop  offset="1" style="stop-color:#121245"/>
	</linearGradient>
	<rect x="147.1" y="298.8" class="st2" width="850.2" height="70.5"/>
	<linearGradient id="SVGID_3_" gradientUnits="userSpaceOnUse" x1="147.0981" y1="470.4953" x2="674.7908" y2="470.4953">
		<stop  offset="0" style="stop-color:#1669B3"/>
		<stop  offset="6.693882e-02" style="stop-color:#1B60A4"/>
		<stop  offset="0.3761" style="stop-color:#1E3F77"/>
		<stop  offset="0.6458" style="stop-color:#19285A"/>
		<stop  offset="0.8628" style="stop-color:#14194B"/>
		<stop  offset="1" style="stop-color:#121245"/>
	</linearGradient>
	<rect x="147.1" y="435.2" class="st3" width="527.7" height="70.5"/>
	<linearGradient id="SVGID_4_" gradientUnits="userSpaceOnUse" x1="147.0981" y1="1120.8807" x2="1060.0581" y2="1120.8807">
		<stop  offset="0" style="stop-color:#1669B3"/>
		<stop  offset="6.693882e-02" style="stop-color:#1B60A4"/>
		<stop  offset="0.3761" style="stop-color:#1E3F77"/>
		<stop  offset="0.6458" style="stop-color:#19285A"/>
		<stop  offset="0.8628" style="stop-color:#14194B"/>
		<stop  offset="1" style="stop-color:#121245"/>
	</linearGradient>
	<rect x="147.1" y="1085.6" class="st4" width="913" height="70.5"/>
	<linearGradient id="SVGID_5_" gradientUnits="userSpaceOnUse" x1="147.0981" y1="1257.351" x2="997.3453" y2="1257.351">
		<stop  offset="0" style="stop-color:#1669B3"/>
		<stop  offset="6.693882e-02" style="stop-color:#1B60A4"/>
		<stop  offset="0.3761" style="stop-color:#1E3F77"/>
		<stop  offset="0.6458" style="stop-color:#19285A"/>
		<stop  offset="0.8628" style="stop-color:#14194B"/>
		<stop  offset="1" style="stop-color:#121245"/>
	</linearGradient>
	<rect x="147.1" y="1222.1" class="st5" width="850.2" height="70.5"/>
	<linearGradient id="SVGID_6_" gradientUnits="userSpaceOnUse" x1="147.0981" y1="1393.8213" x2="674.7908" y2="1393.8213">
		<stop  offset="0" style="stop-color:#1669B3"/>
		<stop  offset="6.693882e-02" style="stop-color:#1B60A4"/>
		<stop  offset="0.3761" style="stop-color:#1E3F77"/>
		<stop  offset="0.6458" style="stop-color:#19285A"/>
		<stop  offset="0.8628" style="stop-color:#14194B"/>
		<stop  offset="1" style="stop-color:#121245"/>
	</linearGradient>
	<rect x="147.1" y="1358.6" class="st6" width="527.7" height="70.5"/>
	<linearGradient id="SVGID_7_" gradientUnits="userSpaceOnUse" x1="147.0981" y1="665.9797" x2="1060.0581" y2="665.9797">
		<stop  offset="0" style="stop-color:#1669B3"/>
		<stop  offset="6.693882e-02" style="stop-color:#1B60A4"/>
		<stop  offset="0.3761" style="stop-color:#1E3F77"/>
		<stop  offset="0.6458" style="stop-color:#19285A"/>
		<stop  offset="0.8628" style="stop-color:#14194B"/>
		<stop  offset="1" style="stop-color:#121245"/>
	</linearGradient>
	<rect x="147.1" y="630.7" class="st7" width="913" height="70.5"/>
	<linearGradient id="SVGID_8_" gradientUnits="userSpaceOnUse" x1="147.0982" y1="802.4452" x2="550.4581" y2="802.4452">
		<stop  offset="0" style="stop-color:#1669B3"/>
		<stop  offset="6.693882e-02" style="stop-color:#1B60A4"/>
		<stop  offset="0.3761" style="stop-color:#1E3F77"/>
		<stop  offset="0.6458" style="stop-color:#19285A"/>
		<stop  offset="0.8628" style="stop-color:#14194B"/>
		<stop  offset="1" style="stop-color:#121245"/>
	</linearGradient>
	<path class="st8" d="M550.5,767.2c-27.5,14.1-48.1,39.8-55.4,70.5H147.1v-70.5H550.5z"/>
	<linearGradient id="SVGID_9_" gradientUnits="userSpaceOnUse" x1="647.2881" y1="802.4452" x2="1057.3483" y2="802.4452">
		<stop  offset="0" style="stop-color:#1669B3"/>
		<stop  offset="6.693882e-02" style="stop-color:#1B60A4"/>
		<stop  offset="0.3761" style="stop-color:#1E3F77"/>
		<stop  offset="0.6458" style="stop-color:#19285A"/>
		<stop  offset="0.8628" style="stop-color:#14194B"/>
		<stop  offset="1" style="stop-color:#121245"/>
	</linearGradient>
	<path class="st9" d="M1057.3,767.2v70.5H702.7c-7.3-30.8-27.9-56.5-55.4-70.5H1057.3z"/>
	<linearGradient id="SVGID_10_" gradientUnits="userSpaceOnUse" x1="147.0982" y1="938.9202" x2="1054.7882" y2="938.9202">
		<stop  offset="0" style="stop-color:#1669B3"/>
		<stop  offset="6.693882e-02" style="stop-color:#1B60A4"/>
		<stop  offset="0.3761" style="stop-color:#1E3F77"/>
		<stop  offset="0.6458" style="stop-color:#19285A"/>
		<stop  offset="0.8628" style="stop-color:#14194B"/>
		<stop  offset="1" style="stop-color:#121245"/>
	</linearGradient>
	<path class="st10" d="M1054.8,903.7v70.5H147.1v-70.5h353.5c16.2,38.3,54.2,65.2,98.3,65.2c44.1,0,82.1-26.9,98.3-65.2H1054.8z"/>
</g>
<path class="st11" d="M854.8,837.7c-0.3-15.9-12.3-29.2-28.1-31.1l-40.1-5.1c-3.3-10.2-7.4-20-12.1-29.3l3.9-5l20.9-26.9
	c9.1-11.8,9-27.9,0.2-39.1c-0.9-1.1-1.8-2.1-2.8-3.1l-33.6-33.6c-11.2-11.6-29.4-12.7-42.3-2.7l-31.9,24.8
	c-9.3-4.8-19.1-8.8-29.3-12.1l-5.1-40c-0.2-1.2-0.4-2.5-0.7-3.7c-3.4-14.2-16.1-24.5-31-24.5H575c-14.9,0-27.7,10.3-31.1,24.5
	c-0.3,1.2-0.5,2.4-0.6,3.6l-5.1,40.1c-10.2,3.3-20,7.4-29.3,12.1L477,661.8c-12.9-10-31.1-8.9-42.2,2.6L401.2,698
	c-1.1,1-2.1,2.1-2.9,3.3c-8.8,11.3-8.9,27.4,0.2,39.1l20.9,26.8l3.9,5c-4.8,9.3-8.8,19.1-12.1,29.3l-40,5.1
	c-15.9,1.9-27.9,15.2-28.1,31.1c0,0.2,0,0.4,0,0.6v47.8c0,6.4,1.9,12.5,5.3,17.6c5,7.6,13.2,13,22.8,14.1l40.1,5.1
	c3.3,10.2,7.4,20,12.1,29.3l-17.1,22l-7.7,9.9c-10,12.9-8.8,31.1,2.6,42.2l33.6,33.6c11.2,11.5,29.4,12.7,42.4,2.7l31.9-24.8
	c9.3,4.8,19.1,8.9,29.3,12.1l4.5,35.6l0.6,4.4c1.9,16.1,15.6,28.2,31.7,28.2h47.8c16.1,0,29.8-12.1,31.7-28.1l0.6-4.5l4.5-35.6
	c10.2-3.3,20-7.4,29.3-12.1l31.9,24.8c12.9,10,31.1,8.8,42.2-2.6l33.6-33.6c11.6-11.2,12.7-29.4,2.7-42.3l-7.7-9.9l-17.1-22
	c4.8-9.3,8.8-19.1,12.1-29.3l40-5.1c9.6-1.1,17.9-6.5,22.9-14.1c3.3-5.1,5.3-11.1,5.3-17.6v-47.8
	C854.9,838.1,854.9,837.9,854.8,837.7z M598.9,968.9c-44.1,0-82.1-26.9-98.3-65.2c-5.4-12.8-8.4-26.8-8.4-41.5
	c0-8.4,1-16.6,2.8-24.5c7.3-30.8,27.9-56.5,55.4-70.5c14.5-7.4,31-11.6,48.4-11.6c17.4,0,33.9,4.2,48.4,11.6
	c27.5,14.1,48.1,39.8,55.4,70.5c1.9,7.9,2.8,16.1,2.8,24.5c0,14.7-3,28.7-8.4,41.5C680.9,942,643,968.9,598.9,968.9z"/>
<path class="st11" d="M1045.2,412.8l-25.7-3.3c-2.1-6.5-4.7-12.8-7.8-18.8l15.9-20.5c6.4-8.3,5.7-20-1.7-27.1l-21.6-21.6
	c-7.2-7.4-18.9-8.2-27.2-1.7l-20.4,15.9c-6-3.1-12.3-5.7-18.8-7.8l-3.3-25.7c-1.2-10.3-10-18.1-20.3-18.1h-30.7
	c-10.4,0-19.1,7.8-20.3,18l-3.3,25.7c-6.5,2.1-12.8,4.7-18.8,7.8l-20.4-15.9c-8.3-6.4-20-5.7-27.1,1.7l-21.6,21.5
	c-7.4,7.2-8.2,18.9-1.7,27.2l15.9,20.4c-3.1,6-5.7,12.3-7.8,18.8l-25.7,3.3c-10.3,1.2-18.1,10-18.1,20.3v30.7
	c0,10.4,7.8,19.1,18,20.3l25.7,3.3c2.1,6.5,4.7,12.8,7.8,18.8l-15.9,20.5c-6.4,8.3-5.7,20,1.7,27.1l21.6,21.6
	c7.2,7.4,18.9,8.1,27.2,1.7l20.4-15.9c6,3.1,12.3,5.7,18.8,7.8l3.3,25.7c1.2,10.3,10,18.1,20.3,18.1h30.7c10.4,0,19.1-7.8,20.3-18
	L938,569c6.5-2.1,12.8-4.7,18.8-7.8l20.5,15.9c8.3,6.4,20,5.7,27.1-1.7l21.6-21.6c7.4-7.2,8.2-18.9,1.7-27.2l-15.9-20.4
	c3.1-6,5.7-12.3,7.8-18.8l25.7-3.3c10.3-1.2,18.1-10,18.1-20.3v-30.7C1063.2,422.8,1055.5,414.1,1045.2,412.8L1045.2,412.8z
	 M899,516.9c-37.7,0-68.4-30.7-68.4-68.4s30.7-68.4,68.4-68.4s68.4,30.7,68.4,68.4S936.8,516.9,899,516.9L899,516.9z"/>
</svg>
