<?xml version="1.0" encoding="utf-8"?>
<!-- Generator: Adobe Illustrator 25.2.0, SVG Export Plug-In . SVG Version: 6.00 Build 0)  -->
<svg version="1.1" id="Layer_1" xmlns="http://www.w3.org/2000/svg" xmlns:xlink="http://www.w3.org/1999/xlink" x="0px" y="0px"
	 viewBox="0 0 957.4 1738.4" style="enable-background:new 0 0 957.4 1738.4;" xml:space="preserve">
<style type="text/css">
	.st0{fill:url(#SVGID_1_);}
	.st1{fill:#F26E24;}
	.st2{fill:url(#SVGID_2_);}
	.st3{fill:url(#SVGID_3_);}
	.st4{fill:none;stroke:#91321E;stroke-miterlimit:10;}
	.st5{opacity:0.32;fill:#050606;}
	.st6{fill:url(#SVGID_4_);}
	.st7{fill:url(#SVGID_5_);}
	.st8{fill:url(#SVGID_6_);}
</style>
<g>
	<linearGradient id="SVGID_1_" gradientUnits="userSpaceOnUse" x1="0" y1="262.5798" x2="681.6755" y2="262.5798">
		<stop  offset="0" style="stop-color:#FFFFFF"/>
		<stop  offset="0.5535" style="stop-color:#EDEEEF"/>
		<stop  offset="1" style="stop-color:#E6E7E8"/>
	</linearGradient>
	<polygon class="st0" points="681.7,229.1 43.3,525.2 0,251.6 681.7,0 	"/>
	<polygon class="st1" points="727.8,274 89.4,570.1 40.1,296.5 727.8,44.9 	"/>
	<polygon class="st1" points="751.6,277.9 113.2,574 63.9,300.4 751.6,48.8 	"/>
	<polygon class="st1" points="790.2,279.5 151.8,575.5 102.5,301.9 790.2,50.4 	"/>
	<polygon class="st1" points="838.7,277.5 187.3,575.5 138,301.9 825.7,50.4 	"/>
	<linearGradient id="SVGID_2_" gradientUnits="userSpaceOnUse" x1="0" y1="994.9708" x2="263.7993" y2="994.9708">
		<stop  offset="0" style="stop-color:#FFFFFF"/>
		<stop  offset="0.5535" style="stop-color:#EDEEEF"/>
		<stop  offset="1" style="stop-color:#E6E7E8"/>
	</linearGradient>
	<polygon class="st2" points="238.1,1738.4 27,1621.6 0,251.6 263.8,319.2 	"/>
	<linearGradient id="SVGID_3_" gradientUnits="userSpaceOnUse" x1="238.0743" y1="891.6555" x2="897.29" y2="891.6555">
		<stop  offset="0" style="stop-color:#FFFFFF"/>
		<stop  offset="0.5535" style="stop-color:#EDEEEF"/>
		<stop  offset="1" style="stop-color:#E6E7E8"/>
	</linearGradient>
	<polygon class="st3" points="794,1217.3 238.1,1738.4 238.1,314.2 897.3,44.9 	"/>
	<line class="st4" x1="95.8" y1="276.1" x2="727.8" y2="44.9"/>
	<line class="st4" x1="125" y1="281.2" x2="747.7" y2="51.5"/>
	<circle class="st5" cx="275.2" cy="778" r="25.6"/>
	<circle class="st5" cx="384.8" cy="754.6" r="25.6"/>
	<circle class="st5" cx="275.2" cy="1183.9" r="25.6"/>
	<circle class="st5" cx="384.8" cy="1160.5" r="25.6"/>
	<line class="st4" x1="154.7" y1="289.4" x2="786.7" y2="51.9"/>
	<line class="st4" x1="187.5" y1="292.9" x2="824" y2="58.2"/>
	<linearGradient id="SVGID_4_" gradientUnits="userSpaceOnUse" x1="323.9876" y1="749.1965" x2="339.7375" y2="780.6964">
		<stop  offset="0" style="stop-color:#1669B3"/>
		<stop  offset="6.693882e-02" style="stop-color:#1B60A4"/>
		<stop  offset="0.3761" style="stop-color:#1E3F77"/>
		<stop  offset="0.6458" style="stop-color:#19285A"/>
		<stop  offset="0.8628" style="stop-color:#14194B"/>
		<stop  offset="1" style="stop-color:#121245"/>
	</linearGradient>
	<path class="st6" d="M272.9,780c2,21.3,36.2,35.5,76.3,31.7c40.1-3.8,41.1-45.8,39.1-67.2s-1.3,38.3-41.4,42.1
		C306.7,790.5,270.9,758.7,272.9,780z"/>
	<linearGradient id="SVGID_5_" gradientUnits="userSpaceOnUse" x1="323.9876" y1="1151.2119" x2="339.7375" y2="1182.7118">
		<stop  offset="0" style="stop-color:#1669B3"/>
		<stop  offset="6.693882e-02" style="stop-color:#1B60A4"/>
		<stop  offset="0.3761" style="stop-color:#1E3F77"/>
		<stop  offset="0.6458" style="stop-color:#19285A"/>
		<stop  offset="0.8628" style="stop-color:#14194B"/>
		<stop  offset="1" style="stop-color:#121245"/>
	</linearGradient>
	<path class="st7" d="M272.9,1182.1c2,21.3,36.2,35.5,76.3,31.7s41.1-45.8,39.1-67.2s-1.3,38.3-41.4,42.1S270.9,1160.8,272.9,1182.1
		z"/>
</g>
<g>
	<g>
		<linearGradient id="SVGID_6_" gradientUnits="userSpaceOnUse" x1="19.2873" y1="906.6555" x2="957.4166" y2="906.6555">
			<stop  offset="0" style="stop-color:#E75625"/>
			<stop  offset="1" style="stop-color:#F36E24"/>
		</linearGradient>
		<path class="st8" d="M187.4,820.5c-11,0-20,8.1-20,18.1v34c0,10,9,18.1,20,18.1h20v-70.2H187.4z M262.6,820.5h-20v70.2h20
			c11.1,0,20-8.1,20-18.1v-34C282.7,828.7,273.7,820.5,262.6,820.5z M262.6,820.5h-20v70.2h20c11.1,0,20-8.1,20-18.1v-34
			C282.7,828.7,273.7,820.5,262.6,820.5z M167.4,838.6v34c0,10,9,18.1,20,18.1h20v-70.2h-20C176.4,820.5,167.4,828.7,167.4,838.6z
			 M883.4,601.7H93.3c-40.8,0-74,30-74,66.9v476.1c0,36.9,33.2,66.9,74,66.9h790.1c40.8,0,74-30,74-66.9V668.6
			C957.4,631.7,924.2,601.7,883.4,601.7z M337.9,975.8h112.9c9.7,0,17.6,7.1,17.6,15.9c0,8.8-7.9,15.9-17.6,15.9H337.9
			c-9.7,0-17.6-7.1-17.6-15.9C320.3,982.9,328.2,975.8,337.9,975.8z M132.2,838.6c0-27.5,24.8-49.9,55.2-49.9h75.2
			c30.5,0,55.2,22.4,55.2,49.9v34c0,27.5-24.8,49.9-55.2,49.9h-75.2c-30.5,0-55.2-22.4-55.2-49.9V838.6z M149.8,975.8h112.9
			c9.7,0,17.6,7.1,17.6,15.9c0,8.8-7.9,15.9-17.6,15.9H149.8c-9.7,0-17.6-7.1-17.6-15.9C132.2,982.9,140,975.8,149.8,975.8z
			 M526,1092.6H149.8c-9.7,0-17.6-7.1-17.6-15.9c0-8.8,7.9-15.9,17.6-15.9H526c9.7,0,17.6,7.1,17.6,15.9
			C543.6,1085.5,535.7,1092.6,526,1092.6z M638.9,1007.6H526c-9.7,0-17.6-7.1-17.6-15.9c0-8.8,7.9-15.9,17.6-15.9h112.9
			c9.7,0,17.6,7.1,17.6,15.9C656.5,1000.5,648.6,1007.6,638.9,1007.6z M827,1007.6H714.1c-9.7,0-17.6-7.1-17.6-15.9
			c0-8.8,7.9-15.9,17.6-15.9H827c9.7,0,17.6,7.1,17.6,15.9C844.6,1000.5,836.7,1007.6,827,1007.6z M751.7,871.5
			c-30.9,0-58.4-13.7-75.2-34.8c-16.9,21.1-44.3,34.8-75.2,34.8c-51.2,0-92.9-37.6-92.9-83.9c0-46.3,41.7-83.9,92.9-83.9
			c30.9,0,58.4,13.7,75.2,34.8c16.9-21.1,44.3-34.8,75.2-34.8c51.2,0,92.9,37.6,92.9,83.9C844.6,833.9,802.9,871.5,751.7,871.5z
			 M751.7,735.5c-31.8,0-57.6,23.4-57.6,52.1c0,28.7,25.9,52.1,57.6,52.1c31.8,0,57.7-23.4,57.7-52.1
			C809.4,758.9,783.5,735.5,751.7,735.5z M601.2,735.5c-31.8,0-57.6,23.4-57.6,52.1c0,28.7,25.9,52.1,57.6,52.1
			c31.8,0,57.7-23.4,57.7-52.1C658.9,758.9,633,735.5,601.2,735.5z M282.7,872.6v-34c0-10-9-18.1-20-18.1h-20v70.2h20
			C273.7,890.7,282.7,882.6,282.7,872.6z M187.4,890.7h20v-70.2h-20c-11,0-20,8.1-20,18.1v34C167.4,882.6,176.3,890.7,187.4,890.7z"
			/>
	</g>
</g>
</svg>
