<?xml version="1.0" encoding="utf-8"?>
<!-- Generator: Adobe Illustrator 25.2.0, SVG Export Plug-In . SVG Version: 6.00 Build 0)  -->
<svg version="1.1" id="Layer_1" xmlns="http://www.w3.org/2000/svg" xmlns:xlink="http://www.w3.org/1999/xlink" x="0px" y="0px"
	 viewBox="0 0 63.8 71" style="enable-background:new 0 0 63.8 71;" xml:space="preserve">
<style type="text/css">
	.st0{fill:url(#SVGID_1_);}
	.st1{fill:url(#SVGID_2_);}
	.st2{fill:url(#SVGID_3_);}
	.st3{fill:url(#SVGID_4_);}
	.st4{fill:url(#SVGID_5_);}
	.st5{fill:url(#SVGID_6_);}
	.st6{fill:#ADAEAF;}
	.st7{fill:url(#SVGID_7_);}
	.st8{fill:url(#SVGID_8_);}
	.st9{fill:url(#SVGID_9_);}
</style>
<g>
	<g>
		<g>
			<linearGradient id="SVGID_1_" gradientUnits="userSpaceOnUse" x1="17.9363" y1="12.4881" x2="35.7931" y2="12.4881">
				<stop  offset="0" style="stop-color:#E65625"/>
				<stop  offset="1" style="stop-color:#F26E24"/>
			</linearGradient>
			<path class="st0" d="M18.8,20.6L18.8,20.6c-1.1-1.1-1.1-2.9,0-4L30.9,4.4c1.1-1.1,2.9-1.1,4,0l0,0c1.1,1.1,1.1,2.9,0,4L22.8,20.6
				C21.7,21.7,19.9,21.7,18.8,20.6z"/>
			<linearGradient id="SVGID_2_" gradientUnits="userSpaceOnUse" x1="16.0972" y1="9.1157" x2="30.8873" y2="9.1157">
				<stop  offset="0" style="stop-color:#E65625"/>
				<stop  offset="1" style="stop-color:#F26E24"/>
			</linearGradient>
			<path class="st1" d="M16.9,16l-0.3-0.3c-0.7-0.7-0.7-1.7,0-2.4L27.7,2.2c0.7-0.7,1.7-0.7,2.4,0l0.3,0.3c0.7,0.7,0.7,1.7,0,2.4
				L19.3,16C18.6,16.7,17.6,16.7,16.9,16z"/>
			<linearGradient id="SVGID_3_" gradientUnits="userSpaceOnUse" x1="36.8217" y1="31.3735" x2="54.6786" y2="31.3735">
				<stop  offset="0" style="stop-color:#E65625"/>
				<stop  offset="1" style="stop-color:#F26E24"/>
			</linearGradient>
			<path class="st2" d="M37.7,39.5L37.7,39.5c1.1,1.1,2.9,1.1,4,0l12.1-12.1c1.1-1.1,1.1-2.9,0-4h0c-1.1-1.1-2.9-1.1-4,0L37.7,35.4
				C36.5,36.5,36.5,38.4,37.7,39.5z"/>
			<linearGradient id="SVGID_4_" gradientUnits="userSpaceOnUse" x1="41.7275" y1="34.746" x2="56.5177" y2="34.746">
				<stop  offset="0" style="stop-color:#E65625"/>
				<stop  offset="1" style="stop-color:#F26E24"/>
			</linearGradient>
			<path class="st3" d="M42.2,41.3l0.3,0.3c0.7,0.7,1.7,0.7,2.4,0L56,30.5c0.7-0.7,0.7-1.7,0-2.4l-0.3-0.3c-0.7-0.7-1.7-0.7-2.4,0
				L42.2,39C41.6,39.6,41.6,40.7,42.2,41.3z"/>
			<linearGradient id="SVGID_5_" gradientUnits="userSpaceOnUse" x1="23.4923" y1="21.9308" x2="49.1225" y2="21.9308">
				<stop  offset="0" style="stop-color:#E65625"/>
				<stop  offset="1" style="stop-color:#F26E24"/>
			</linearGradient>
			<polygon class="st4" points="38.3,34.7 23.5,19.9 34.3,9.1 49.1,24 			"/>
		</g>
		<linearGradient id="SVGID_6_" gradientUnits="userSpaceOnUse" x1="23.1551" y1="30.6991" x2="31.9233" y2="30.6991">
			<stop  offset="0" style="stop-color:#E65625"/>
			<stop  offset="1" style="stop-color:#F26E24"/>
		</linearGradient>
		<polygon class="st5" points="29.9,26.3 31.9,28.3 25.2,35.1 23.2,33.1 		"/>
		
			<rect x="10.8" y="31.5" transform="matrix(0.7071 0.7071 -0.7071 0.7071 35.6408 3.6827)" class="st6" width="5.2" height="26.7"/>
		<linearGradient id="SVGID_7_" gradientUnits="userSpaceOnUse" x1="19.8417" y1="34.7459" x2="27.1429" y2="34.7459">
			<stop  offset="0" style="stop-color:#E65625"/>
			<stop  offset="1" style="stop-color:#F26E24"/>
		</linearGradient>
		<path class="st7" d="M21.5,31.4l5.4,5.4c0.4,0.4,0.4,1,0,1.3l0,0c-0.4,0.4-1,0.4-1.3,0l-5.4-5.4c-0.4-0.4-0.4-1,0-1.3l0,0
			C20.5,31,21.1,31,21.5,31.4z"/>
	</g>
	<linearGradient id="SVGID_8_" gradientUnits="userSpaceOnUse" x1="39.7565" y1="68.258" x2="61.3166" y2="68.258">
		<stop  offset="0" style="stop-color:#1468B2"/>
		<stop  offset="0.288" style="stop-color:#134889"/>
		<stop  offset="0.5947" style="stop-color:#132B64"/>
		<stop  offset="0.843" style="stop-color:#12194D"/>
		<stop  offset="1" style="stop-color:#121245"/>
	</linearGradient>
	<path class="st8" d="M61.3,68.6v-0.6c0-1.3-1.1-2.4-2.4-2.4H42.1c-1.3,0-2.4,1.1-2.4,2.4v0.6c0,1.3,1.1,2.4,2.4,2.4h16.8
		C60.2,71,61.3,69.9,61.3,68.6z"/>
	<linearGradient id="SVGID_9_" gradientUnits="userSpaceOnUse" x1="41.5532" y1="63.7663" x2="59.5199" y2="63.7663">
		<stop  offset="0" style="stop-color:#E65625"/>
		<stop  offset="1" style="stop-color:#F26E24"/>
	</linearGradient>
	<path class="st9" d="M59.5,64v-0.4c0-0.9-0.7-1.6-1.6-1.6H43.1c-0.9,0-1.6,0.7-1.6,1.6V64c0,0.9,0.7,1.6,1.6,1.6h14.8
		C58.8,65.6,59.5,64.9,59.5,64z"/>
</g>
</svg>
