<?xml version="1.0" encoding="utf-8"?>
<!-- Generator: Adobe Illustrator 25.2.0, SVG Export Plug-In . SVG Version: 6.00 Build 0)  -->
<svg version="1.1" id="Layer_1" xmlns="http://www.w3.org/2000/svg" xmlns:xlink="http://www.w3.org/1999/xlink" x="0px" y="0px"
	 viewBox="0 0 85.3 104.2" style="enable-background:new 0 0 85.3 104.2;" xml:space="preserve">
<style type="text/css">
	.st0{fill:url(#SVGID_1_);}
	.st1{fill:url(#SVGID_2_);}
</style>
<g>
	<linearGradient id="SVGID_1_" gradientUnits="userSpaceOnUse" x1="27.8935" y1="49.4925" x2="57.4401" y2="49.4925">
		<stop  offset="0" style="stop-color:#0467B8"/>
		<stop  offset="0.3013" style="stop-color:#033F8C"/>
		<stop  offset="0.6026" style="stop-color:#021D67"/>
		<stop  offset="0.8461" style="stop-color:#010850"/>
		<stop  offset="1" style="stop-color:#010048"/>
	</linearGradient>
	<path class="st0" d="M56.4,39.3c-0.7-0.7-1.6-1.1-2.6-1.1c-1,0-1.9,0.4-2.6,1.1L38.5,52l-4.4-4.4c-0.7-0.7-1.6-1.1-2.6-1.1
		c-1,0-1.9,0.4-2.6,1.1c-0.7,0.7-1.1,1.6-1.1,2.6c0,1,0.4,1.9,1.1,2.6l7,7c0.7,0.7,1.6,1.1,2.6,1.1c0,0,0,0,0,0c1,0,1.9-0.4,2.6-1.1
		l15.3-15.3C57.8,43,57.8,40.7,56.4,39.3z"/>
	<linearGradient id="SVGID_2_" gradientUnits="userSpaceOnUse" x1="0" y1="52.0973" x2="85.28" y2="52.0973">
		<stop  offset="0" style="stop-color:#0467B8"/>
		<stop  offset="0.3013" style="stop-color:#033F8C"/>
		<stop  offset="0.6026" style="stop-color:#021D67"/>
		<stop  offset="0.8461" style="stop-color:#010850"/>
		<stop  offset="1" style="stop-color:#010048"/>
	</linearGradient>
	<path class="st1" d="M85.1,21.5c-0.1-0.7-0.5-1.2-1.1-1.5L43.5,0.2c-0.5-0.3-1.1-0.3-1.7,0L1.2,19.9c-0.6,0.3-1,0.9-1.1,1.5
		C0.1,22.1-1,36.3,3.4,53.6c2.6,10.2,6.7,19.4,12.1,27.2c6.7,9.8,15.6,17.6,26.2,23.2c0.3,0.1,0.6,0.2,0.9,0.2
		c0.3,0,0.6-0.1,0.9-0.2C54.2,98.4,63,90.6,69.8,80.8c5.4-7.9,9.4-17,12.1-27.2C86.3,36.3,85.2,22.1,85.1,21.5z M42.6,73.2
		c-13.3,0-24.1-10.8-24.1-24.1s10.8-24.1,24.1-24.1s24.1,10.8,24.1,24.1S55.9,73.2,42.6,73.2z"/>
</g>
</svg>
