<?xml version="1.0" encoding="utf-8"?>
<!-- Generator: Adobe Illustrator 25.2.0, SVG Export Plug-In . SVG Version: 6.00 Build 0)  -->
<svg version="1.1" id="Color" xmlns="http://www.w3.org/2000/svg" xmlns:xlink="http://www.w3.org/1999/xlink" x="0px" y="0px"
	 viewBox="0 0 57.5 72.8" style="enable-background:new 0 0 57.5 72.8;" xml:space="preserve">
<style type="text/css">
	.st0{fill:url(#SVGID_1_);}
	.st1{fill:url(#SVGID_2_);}
	.st2{fill:url(#SVGID_3_);}
	.st3{fill:url(#SVGID_4_);}
	.st4{fill:url(#SVGID_5_);}
	.st5{fill:url(#SVGID_6_);}
	.st6{fill:url(#SVGID_7_);}
	.st7{fill:url(#SVGID_8_);}
	.st8{fill:url(#SVGID_9_);}
	.st9{fill:url(#SVGID_10_);}
	.st10{fill:url(#SVGID_11_);}
	.st11{fill:url(#SVGID_12_);}
	.st12{fill:url(#SVGID_13_);}
	.st13{fill:url(#SVGID_14_);}
	.st14{fill:url(#SVGID_15_);}
</style>
<g>
	<g>
		<linearGradient id="SVGID_1_" gradientUnits="userSpaceOnUse" x1="28.7375" y1="72.7785" x2="28.7375" y2="66.4453">
			<stop  offset="0" style="stop-color:#0467B8"/>
			<stop  offset="0.3013" style="stop-color:#033F8C"/>
			<stop  offset="0.6026" style="stop-color:#021D67"/>
			<stop  offset="0.8461" style="stop-color:#010850"/>
			<stop  offset="1" style="stop-color:#010048"/>
		</linearGradient>
		<path class="st0" d="M57.5,69.6L57.5,69.6c0-1.7-1.4-3.2-3.2-3.2H3.2c-1.7,0-3.2,1.4-3.2,3.2l0,0c0,1.7,1.4,3.2,3.2,3.2h51.1
			C56.1,72.8,57.5,71.4,57.5,69.6z"/>
		<linearGradient id="SVGID_2_" gradientUnits="userSpaceOnUse" x1="28.7375" y1="66.4453" x2="28.7375" y2="62.2232">
			<stop  offset="0" style="stop-color:#0467B8"/>
			<stop  offset="0.3013" style="stop-color:#033F8C"/>
			<stop  offset="0.6026" style="stop-color:#021D67"/>
			<stop  offset="0.8461" style="stop-color:#010850"/>
			<stop  offset="1" style="stop-color:#010048"/>
		</linearGradient>
		<path class="st1" d="M54.9,64.3L54.9,64.3c0-1.2-0.9-2.1-2.1-2.1h-48c-1.2,0-2.1,0.9-2.1,2.1l0,0c0,1.2,0.9,2.1,2.1,2.1h48
			C53.9,66.4,54.9,65.5,54.9,64.3z"/>
	</g>
	<g>
		<g>
			<linearGradient id="SVGID_3_" gradientUnits="userSpaceOnUse" x1="9.1438" y1="59.6107" x2="9.1438" y2="28.2608">
				<stop  offset="0" style="stop-color:#0467B8"/>
				<stop  offset="0.3013" style="stop-color:#033F8C"/>
				<stop  offset="0.6026" style="stop-color:#021D67"/>
				<stop  offset="0.8461" style="stop-color:#010850"/>
				<stop  offset="1" style="stop-color:#010048"/>
			</linearGradient>
			<line class="st2" x1="9.1" y1="28.3" x2="9.1" y2="59.6"/>
			<linearGradient id="SVGID_4_" gradientUnits="userSpaceOnUse" x1="9.1438" y1="62.2232" x2="9.1438" y2="25.6483">
				<stop  offset="0" style="stop-color:#0467B8"/>
				<stop  offset="0.3013" style="stop-color:#033F8C"/>
				<stop  offset="0.6026" style="stop-color:#021D67"/>
				<stop  offset="0.8461" style="stop-color:#010850"/>
				<stop  offset="1" style="stop-color:#010048"/>
			</linearGradient>
			<rect x="6.5" y="25.6" class="st3" width="5.2" height="36.6"/>
		</g>
		<linearGradient id="SVGID_5_" gradientUnits="userSpaceOnUse" x1="22.2063" y1="59.6107" x2="22.2063" y2="28.2608">
			<stop  offset="0" style="stop-color:#0467B8"/>
			<stop  offset="0.3013" style="stop-color:#033F8C"/>
			<stop  offset="0.6026" style="stop-color:#021D67"/>
			<stop  offset="0.8461" style="stop-color:#010850"/>
			<stop  offset="1" style="stop-color:#010048"/>
		</linearGradient>
		<line class="st4" x1="22.2" y1="28.3" x2="22.2" y2="59.6"/>
		<g>
			<linearGradient id="SVGID_6_" gradientUnits="userSpaceOnUse" x1="22.2063" y1="59.6107" x2="22.2063" y2="28.2608">
				<stop  offset="0" style="stop-color:#0467B8"/>
				<stop  offset="0.3013" style="stop-color:#033F8C"/>
				<stop  offset="0.6026" style="stop-color:#021D67"/>
				<stop  offset="0.8461" style="stop-color:#010850"/>
				<stop  offset="1" style="stop-color:#010048"/>
			</linearGradient>
			<line class="st5" x1="22.2" y1="28.3" x2="22.2" y2="59.6"/>
			<linearGradient id="SVGID_7_" gradientUnits="userSpaceOnUse" x1="22.2063" y1="62.2232" x2="22.2063" y2="25.6483">
				<stop  offset="0" style="stop-color:#0467B8"/>
				<stop  offset="0.3013" style="stop-color:#033F8C"/>
				<stop  offset="0.6026" style="stop-color:#021D67"/>
				<stop  offset="0.8461" style="stop-color:#010850"/>
				<stop  offset="1" style="stop-color:#010048"/>
			</linearGradient>
			<rect x="19.6" y="25.6" class="st6" width="5.2" height="36.6"/>
		</g>
		<linearGradient id="SVGID_8_" gradientUnits="userSpaceOnUse" x1="37.8813" y1="59.6107" x2="37.8813" y2="28.2608">
			<stop  offset="0" style="stop-color:#0467B8"/>
			<stop  offset="0.3013" style="stop-color:#033F8C"/>
			<stop  offset="0.6026" style="stop-color:#021D67"/>
			<stop  offset="0.8461" style="stop-color:#010850"/>
			<stop  offset="1" style="stop-color:#010048"/>
		</linearGradient>
		<line class="st7" x1="37.9" y1="28.3" x2="37.9" y2="59.6"/>
		<g>
			<linearGradient id="SVGID_9_" gradientUnits="userSpaceOnUse" x1="35.2688" y1="92.833" x2="35.2688" y2="22.4672">
				<stop  offset="0" style="stop-color:#0467B8"/>
				<stop  offset="0.3013" style="stop-color:#033F8C"/>
				<stop  offset="0.6026" style="stop-color:#021D67"/>
				<stop  offset="0.8461" style="stop-color:#010850"/>
				<stop  offset="1" style="stop-color:#010048"/>
			</linearGradient>
			<line class="st8" x1="35.3" y1="28.3" x2="35.3" y2="59.6"/>
			<linearGradient id="SVGID_10_" gradientUnits="userSpaceOnUse" x1="35.2688" y1="62.2232" x2="35.2688" y2="25.6483">
				<stop  offset="0" style="stop-color:#0467B8"/>
				<stop  offset="0.3013" style="stop-color:#033F8C"/>
				<stop  offset="0.6026" style="stop-color:#021D67"/>
				<stop  offset="0.8461" style="stop-color:#010850"/>
				<stop  offset="1" style="stop-color:#010048"/>
			</linearGradient>
			<rect x="32.7" y="25.6" class="st9" width="5.2" height="36.6"/>
		</g>
		<g>
			<linearGradient id="SVGID_11_" gradientUnits="userSpaceOnUse" x1="48.3312" y1="59.6107" x2="48.3312" y2="28.2608">
				<stop  offset="0" style="stop-color:#0467B8"/>
				<stop  offset="0.3013" style="stop-color:#033F8C"/>
				<stop  offset="0.6026" style="stop-color:#021D67"/>
				<stop  offset="0.8461" style="stop-color:#010850"/>
				<stop  offset="1" style="stop-color:#010048"/>
			</linearGradient>
			<line class="st10" x1="48.3" y1="28.3" x2="48.3" y2="59.6"/>
			<linearGradient id="SVGID_12_" gradientUnits="userSpaceOnUse" x1="48.3313" y1="62.2232" x2="48.3313" y2="25.6483">
				<stop  offset="0" style="stop-color:#0467B8"/>
				<stop  offset="0.3013" style="stop-color:#033F8C"/>
				<stop  offset="0.6026" style="stop-color:#021D67"/>
				<stop  offset="0.8461" style="stop-color:#010850"/>
				<stop  offset="1" style="stop-color:#010048"/>
			</linearGradient>
			<rect x="45.7" y="25.6" class="st11" width="5.2" height="36.6"/>
		</g>
	</g>
	<g>
		<linearGradient id="SVGID_13_" gradientUnits="userSpaceOnUse" x1="28.7375" y1="25.6483" x2="28.7375" y2="20.4232">
			<stop  offset="0" style="stop-color:#0467B8"/>
			<stop  offset="0.3013" style="stop-color:#033F8C"/>
			<stop  offset="0.6026" style="stop-color:#021D67"/>
			<stop  offset="0.8461" style="stop-color:#010850"/>
			<stop  offset="1" style="stop-color:#010048"/>
		</linearGradient>
		<path class="st12" d="M57.5,23L57.5,23c0-1.4-1.2-2.6-2.6-2.6H2.6C1.2,20.4,0,21.6,0,23l0,0c0,1.4,1.2,2.6,2.6,2.6h52.2
			C56.3,25.6,57.5,24.5,57.5,23z"/>
		<g>
			<linearGradient id="SVGID_14_" gradientUnits="userSpaceOnUse" x1="28.7394" y1="17.8122" x2="28.7394" y2="-1.818989e-12">
				<stop  offset="0" style="stop-color:#0467B8"/>
				<stop  offset="0.3013" style="stop-color:#033F8C"/>
				<stop  offset="0.6026" style="stop-color:#021D67"/>
				<stop  offset="0.8461" style="stop-color:#010850"/>
				<stop  offset="1" style="stop-color:#010048"/>
			</linearGradient>
			<path class="st13" d="M30.8,0.9c-1.1-1.1-3-1.1-4.1,0l-21.4,17h47L30.8,0.9z M28.7,15.2c-2.9,0-5.2-2.3-5.2-5.2
				c0-2.9,2.3-5.2,5.2-5.2c2.9,0,5.2,2.3,5.2,5.2C34,12.9,31.6,15.2,28.7,15.2z"/>
		</g>
		<linearGradient id="SVGID_15_" gradientUnits="userSpaceOnUse" x1="28.7375" y1="20.4232" x2="28.7375" y2="17.8108">
			<stop  offset="0" style="stop-color:#0467B8"/>
			<stop  offset="0.3013" style="stop-color:#033F8C"/>
			<stop  offset="0.6026" style="stop-color:#021D67"/>
			<stop  offset="0.8461" style="stop-color:#010850"/>
			<stop  offset="1" style="stop-color:#010048"/>
		</linearGradient>
		<path class="st14" d="M3.9,17.8h49.6c0.7,0,1.3,0.6,1.3,1.3l0,0c0,0.7-0.6,1.3-1.3,1.3H3.9c-0.7,0-1.3-0.6-1.3-1.3l0,0
			C2.6,18.4,3.2,17.8,3.9,17.8z"/>
	</g>
</g>
</svg>
