<?xml version="1.0" encoding="utf-8"?>
<!-- Generator: Adobe Illustrator 25.2.0, SVG Export Plug-In . SVG Version: 6.00 Build 0)  -->
<svg version="1.1" id="Layer_1" xmlns="http://www.w3.org/2000/svg" xmlns:xlink="http://www.w3.org/1999/xlink" x="0px" y="0px"
	 viewBox="0 0 80.2 92" style="enable-background:new 0 0 80.2 92;" xml:space="preserve">
<style type="text/css">
	.st0{fill:url(#SVGID_1_);}
	.st1{fill:url(#SVGID_2_);}
	.st2{fill:url(#SVGID_3_);}
	.st3{fill:url(#SVGID_4_);}
</style>
<g>
	<linearGradient id="SVGID_1_" gradientUnits="userSpaceOnUse" x1="57.1939" y1="57.5" x2="80.1939" y2="57.5">
		<stop  offset="0" style="stop-color:#0467B8"/>
		<stop  offset="0.3013" style="stop-color:#033F8C"/>
		<stop  offset="0.6026" style="stop-color:#021D67"/>
		<stop  offset="0.8461" style="stop-color:#010850"/>
		<stop  offset="1" style="stop-color:#010048"/>
	</linearGradient>
	<path class="st0" d="M80.2,92h-23V35.5c0-6.9,5.6-12.5,12.5-12.5h-2c6.9,0,12.5,5.6,12.5,12.5V92z"/>
	<linearGradient id="SVGID_2_" gradientUnits="userSpaceOnUse" x1="28.5993" y1="69.9324" x2="51.5993" y2="69.9324">
		<stop  offset="0" style="stop-color:#0467B8"/>
		<stop  offset="0.3013" style="stop-color:#033F8C"/>
		<stop  offset="0.6026" style="stop-color:#021D67"/>
		<stop  offset="0.8461" style="stop-color:#010850"/>
		<stop  offset="1" style="stop-color:#010048"/>
	</linearGradient>
	<path class="st1" d="M51.6,92h-23V60.4c0-6.9,5.6-12.5,12.5-12.5h-2c6.9,0,12.5,5.6,12.5,12.5V92z"/>
	<linearGradient id="SVGID_3_" gradientUnits="userSpaceOnUse" x1="0.6263" y1="76.1487" x2="23.6263" y2="76.1487">
		<stop  offset="0" style="stop-color:#0467B8"/>
		<stop  offset="0.3013" style="stop-color:#033F8C"/>
		<stop  offset="0.6026" style="stop-color:#021D67"/>
		<stop  offset="0.8461" style="stop-color:#010850"/>
		<stop  offset="1" style="stop-color:#010048"/>
	</linearGradient>
	<path class="st2" d="M23.6,92h-23V72.8c0-6.9,5.6-12.5,12.5-12.5h-2c6.9,0,12.5,5.6,12.5,12.5V92z"/>
	<linearGradient id="SVGID_4_" gradientUnits="userSpaceOnUse" x1="0" y1="16.8426" x2="54.7074" y2="16.8426">
		<stop  offset="0" style="stop-color:#0467B8"/>
		<stop  offset="0.3013" style="stop-color:#033F8C"/>
		<stop  offset="0.6026" style="stop-color:#021D67"/>
		<stop  offset="0.8461" style="stop-color:#010850"/>
		<stop  offset="1" style="stop-color:#010048"/>
	</linearGradient>
	<path class="st3" d="M0,23.6c26.1,23,43.5-0.6,43.5-0.6l11.2,9.9V0H21.8L33,10.6c0,0-2.1,12.2-20.5,8.7C-0.6,16.8,0,23.6,0,23.6z"
		/>
</g>
</svg>
